<?xml version="1.0" encoding="us-ascii" standalone="no"?><svg xmlns="http://www.w3.org/2000/svg" xmlns:xlink="http://www.w3.org/1999/xlink" contentStyleType="text/css" height="616px" preserveAspectRatio="none" style="width:880px;height:616px;background:#FFFFFF;" version="1.1" viewBox="0 0 880 616" width="880px" zoomAndPan="magnify"><defs/><g><rect fill="none" height="248.8672" style="stroke:#000000;stroke-width:1.5;" width="693.5" x="10" y="269.9609"/><line style="stroke:#181818;stroke-width:0.5;stroke-dasharray:5.0,5.0;" x1="47" x2="47" y1="81.2969" y2="535.8281"/><line style="stroke:#181818;stroke-width:0.5;stroke-dasharray:5.0,5.0;" x1="124" x2="124" y1="81.2969" y2="535.8281"/><line style="stroke:#181818;stroke-width:0.5;stroke-dasharray:5.0,5.0;" x1="386.5" x2="386.5" y1="81.2969" y2="535.8281"/><line style="stroke:#181818;stroke-width:0.5;stroke-dasharray:5.0,5.0;" x1="638.5" x2="638.5" y1="81.2969" y2="535.8281"/><text fill="#000000" font-family="sans-serif" font-size="14" lengthAdjust="spacing" textLength="49" x="20" y="77.9951">Person</text><ellipse cx="47.5" cy="13.5" fill="#E2E2F0" rx="8" ry="8" style="stroke:#181818;stroke-width:0.5;"/><path d="M47.5,21.5 L47.5,48.5 M34.5,29.5 L60.5,29.5 M47.5,48.5 L34.5,63.5 M47.5,48.5 L60.5,63.5 " fill="none" style="stroke:#181818;stroke-width:0.5;"/><text fill="#000000" font-family="sans-serif" font-size="14" lengthAdjust="spacing" textLength="49" x="20" y="547.8232">Person</text><ellipse cx="47.5" cy="559.625" fill="#E2E2F0" rx="8" ry="8" style="stroke:#181818;stroke-width:0.5;"/><path d="M47.5,567.625 L47.5,594.625 M34.5,575.625 L60.5,575.625 M47.5,594.625 L34.5,609.625 M47.5,594.625 L60.5,609.625 " fill="none" style="stroke:#181818;stroke-width:0.5;"/><rect fill="#E2E2F0" height="30.2969" rx="2.5" ry="2.5" style="stroke:#181818;stroke-width:0.5;" width="77" x="86" y="50"/><text fill="#000000" font-family="sans-serif" font-size="14" lengthAdjust="spacing" textLength="63" x="93" y="69.9951">Frontend</text><rect fill="#E2E2F0" height="30.2969" rx="2.5" ry="2.5" style="stroke:#181818;stroke-width:0.5;" width="77" x="86" y="534.8281"/><text fill="#000000" font-family="sans-serif" font-size="14" lengthAdjust="spacing" textLength="63" x="93" y="554.8232">Frontend</text><rect fill="#E2E2F0" height="30.2969" rx="2.5" ry="2.5" style="stroke:#181818;stroke-width:0.5;" width="100" x="336.5" y="50"/><text fill="#000000" font-family="sans-serif" font-size="14" lengthAdjust="spacing" textLength="86" x="343.5" y="69.9951">Auth Service</text><rect fill="#E2E2F0" height="30.2969" rx="2.5" ry="2.5" style="stroke:#181818;stroke-width:0.5;" width="100" x="336.5" y="534.8281"/><text fill="#000000" font-family="sans-serif" font-size="14" lengthAdjust="spacing" textLength="86" x="343.5" y="554.8232">Auth Service</text><rect fill="#E2E2F0" height="30.2969" rx="2.5" ry="2.5" style="stroke:#181818;stroke-width:0.5;" width="110" x="583.5" y="50"/><text fill="#000000" font-family="sans-serif" font-size="14" lengthAdjust="spacing" textLength="96" x="590.5" y="69.9951">Profile Service</text><rect fill="#E2E2F0" height="30.2969" rx="2.5" ry="2.5" style="stroke:#181818;stroke-width:0.5;" width="110" x="583.5" y="534.8281"/><text fill="#000000" font-family="sans-serif" font-size="14" lengthAdjust="spacing" textLength="96" x="590.5" y="554.8232">Profile Service</text><polygon fill="#181818" points="112.5,108.4297,122.5,112.4297,112.5,116.4297,116.5,112.4297" style="stroke:#181818;stroke-width:1.0;"/><line style="stroke:#181818;stroke-width:1.0;" x1="47.5" x2="118.5" y1="112.4297" y2="112.4297"/><text fill="#000000" font-family="sans-serif" font-size="13" lengthAdjust="spacing" textLength="52" x="54.5" y="107.3638">Register</text><polygon fill="#181818" points="374.5,137.5625,384.5,141.5625,374.5,145.5625,378.5,141.5625" style="stroke:#181818;stroke-width:1.0;"/><line style="stroke:#181818;stroke-width:1.0;" x1="124.5" x2="380.5" y1="141.5625" y2="141.5625"/><text fill="#000000" font-family="sans-serif" font-size="13" lengthAdjust="spacing" textLength="238" x="131.5" y="136.4966">Register(email, password, username)</text><line style="stroke:#181818;stroke-width:1.0;" x1="386.5" x2="428.5" y1="170.6953" y2="170.6953"/><line style="stroke:#181818;stroke-width:1.0;" x1="428.5" x2="428.5" y1="170.6953" y2="183.6953"/><line style="stroke:#181818;stroke-width:1.0;" x1="387.5" x2="428.5" y1="183.6953" y2="183.6953"/><polygon fill="#181818" points="397.5,179.6953,387.5,183.6953,397.5,187.6953,393.5,183.6953" style="stroke:#181818;stroke-width:1.0;"/><text fill="#000000" font-family="sans-serif" font-size="13" lengthAdjust="spacing" textLength="184" x="393.5" y="165.6294">createUser(email, password)</text><polygon fill="#181818" points="626.5,208.8281,636.5,212.8281,626.5,216.8281,630.5,212.8281" style="stroke:#181818;stroke-width:1.0;"/><line style="stroke:#181818;stroke-width:1.0;" x1="386.5" x2="632.5" y1="212.8281" y2="212.8281"/><text fill="#000000" font-family="sans-serif" font-size="13" lengthAdjust="spacing" textLength="228" x="393.5" y="207.7622">createUserProfile(email, username)</text><line style="stroke:#181818;stroke-width:1.0;" x1="638.5" x2="680.5" y1="241.9609" y2="241.9609"/><line style="stroke:#181818;stroke-width:1.0;" x1="680.5" x2="680.5" y1="241.9609" y2="254.9609"/><line style="stroke:#181818;stroke-width:1.0;" x1="639.5" x2="680.5" y1="254.9609" y2="254.9609"/><polygon fill="#181818" points="649.5,250.9609,639.5,254.9609,649.5,258.9609,645.5,254.9609" style="stroke:#181818;stroke-width:1.0;"/><text fill="#000000" font-family="sans-serif" font-size="13" lengthAdjust="spacing" textLength="228" x="645.5" y="236.895">createUserProfile(email, username)</text><path d="M10,269.9609 L74,269.9609 L74,277.0938 L64,287.0938 L10,287.0938 L10,269.9609 " fill="#EEEEEE" style="stroke:#000000;stroke-width:1.5;"/><rect fill="none" height="248.8672" style="stroke:#000000;stroke-width:1.5;" width="693.5" x="10" y="269.9609"/><text fill="#000000" font-family="sans-serif" font-size="13" font-weight="bold" lengthAdjust="spacing" textLength="19" x="25" y="283.0278">alt</text><text fill="#000000" font-family="sans-serif" font-size="11" font-weight="bold" lengthAdjust="spacing" textLength="186" x="89" y="282.1714">[Successfull profile creation]</text><polygon fill="#181818" points="397.5,304.2266,387.5,308.2266,397.5,312.2266,393.5,308.2266" style="stroke:#181818;stroke-width:1.0;"/><line style="stroke:#181818;stroke-width:1.0;" x1="391.5" x2="637.5" y1="308.2266" y2="308.2266"/><text fill="#000000" font-family="sans-serif" font-size="13" lengthAdjust="spacing" textLength="53" x="403.5" y="303.1606">Success</text><polygon fill="#181818" points="135.5,333.3594,125.5,337.3594,135.5,341.3594,131.5,337.3594" style="stroke:#181818;stroke-width:1.0;"/><line style="stroke:#181818;stroke-width:1.0;" x1="129.5" x2="385.5" y1="337.3594" y2="337.3594"/><text fill="#000000" font-family="sans-serif" font-size="13" lengthAdjust="spacing" textLength="53" x="141.5" y="332.2935">Success</text><polygon fill="#181818" points="58.5,362.4922,48.5,366.4922,58.5,370.4922,54.5,366.4922" style="stroke:#181818;stroke-width:1.0;"/><line style="stroke:#181818;stroke-width:1.0;" x1="52.5" x2="123.5" y1="366.4922" y2="366.4922"/><text fill="#000000" font-family="sans-serif" font-size="13" lengthAdjust="spacing" textLength="53" x="64.5" y="361.4263">Success</text><line style="stroke:#000000;stroke-width:1.0;stroke-dasharray:2.0,2.0;" x1="10" x2="703.5" y1="375.4922" y2="375.4922"/><text fill="#000000" font-family="sans-serif" font-size="11" font-weight="bold" lengthAdjust="spacing" textLength="153" x="15" y="385.7026">[Failed profile creation]</text><polygon fill="#181818" points="397.5,406.4297,387.5,410.4297,397.5,414.4297,393.5,410.4297" style="stroke:#181818;stroke-width:1.0;"/><line style="stroke:#181818;stroke-width:1.0;" x1="391.5" x2="637.5" y1="410.4297" y2="410.4297"/><text fill="#000000" font-family="sans-serif" font-size="13" lengthAdjust="spacing" textLength="37" x="403.5" y="405.3638">Failed</text><line style="stroke:#181818;stroke-width:1.0;" x1="386.5" x2="428.5" y1="439.5625" y2="439.5625"/><line style="stroke:#181818;stroke-width:1.0;" x1="428.5" x2="428.5" y1="439.5625" y2="452.5625"/><line style="stroke:#181818;stroke-width:1.0;" x1="387.5" x2="428.5" y1="452.5625" y2="452.5625"/><polygon fill="#181818" points="397.5,448.5625,387.5,452.5625,397.5,456.5625,393.5,452.5625" style="stroke:#181818;stroke-width:1.0;"/><text fill="#000000" font-family="sans-serif" font-size="13" lengthAdjust="spacing" textLength="115" x="393.5" y="434.4966">deleteUser(email)</text><polygon fill="#181818" points="135.5,477.6953,125.5,481.6953,135.5,485.6953,131.5,481.6953" style="stroke:#181818;stroke-width:1.0;"/><line style="stroke:#181818;stroke-width:1.0;" x1="129.5" x2="385.5" y1="481.6953" y2="481.6953"/><text fill="#000000" font-family="sans-serif" font-size="13" lengthAdjust="spacing" textLength="37" x="141.5" y="476.6294">Failed</text><polygon fill="#181818" points="58.5,506.8281,48.5,510.8281,58.5,514.8281,54.5,510.8281" style="stroke:#181818;stroke-width:1.0;"/><line style="stroke:#181818;stroke-width:1.0;" x1="52.5" x2="123.5" y1="510.8281" y2="510.8281"/><text fill="#000000" font-family="sans-serif" font-size="13" lengthAdjust="spacing" textLength="37" x="64.5" y="505.7622">Failed</text><!--SRC=[dLAxRiCm3Dpr5KIc1aX_e4E1Bfc31lq0Ghwq0XJ98ENqz-k774jsq27QIDuTZwJOfYXqWcWCnhGioLdNSaYqEqeC2Q7P4IlDmGhpqQKVEaDkpcB43OaShw0dYHVdKQ5pxawOVD3h-xtV6ttYssc263FdXdhHPu6yuChE7wXbrTyepO4wXGI-OczCmTW8M04dVEbMOakiFPVSN9abYjurvraLzedEdRLGlNJUKvitEd9TVp_gtxPLDMdcZz3LOClAIr2vzEayInrUGSVU9fgdp4pKHrugM0EFyZhx_zqNge_Cv_Bmb_y0]--></g></svg>