<?xml version="1.0" encoding="us-ascii" standalone="no"?><svg xmlns="http://www.w3.org/2000/svg" xmlns:xlink="http://www.w3.org/1999/xlink" contentStyleType="text/css" height="333px" preserveAspectRatio="none" style="width:535px;height:333px;background:#FFFFFF;" version="1.1" viewBox="0 0 535 333" width="535px" zoomAndPan="magnify"><defs/><g><!--entity Frontend--><g id="elem_Frontend"><rect fill="#F1F1F1" height="62.5938" rx="2.5" ry="2.5" style="stroke:#181818;stroke-width:0.5;" width="109" x="46" y="129.59"/><rect fill="#F1F1F1" height="10" style="stroke:#181818;stroke-width:0.5;" width="15" x="135" y="134.59"/><rect fill="#F1F1F1" height="2" style="stroke:#181818;stroke-width:0.5;" width="4" x="133" y="136.59"/><rect fill="#F1F1F1" height="2" style="stroke:#181818;stroke-width:0.5;" width="4" x="133" y="140.59"/><text fill="#000000" font-family="sans-serif" font-size="14" font-style="italic" lengthAdjust="spacing" textLength="69" x="61" y="162.5851">&#171;Service&#187;</text><text fill="#000000" font-family="sans-serif" font-size="14" lengthAdjust="spacing" textLength="63" x="64" y="178.882">Frontend</text></g><!--entity Session--><g id="elem_Session"><rect fill="#F1F1F1" height="62.5938" rx="2.5" ry="2.5" style="stroke:#181818;stroke-width:0.5;" width="109" x="61" y="7"/><rect fill="#F1F1F1" height="10" style="stroke:#181818;stroke-width:0.5;" width="15" x="150" y="12"/><rect fill="#F1F1F1" height="2" style="stroke:#181818;stroke-width:0.5;" width="4" x="148" y="14"/><rect fill="#F1F1F1" height="2" style="stroke:#181818;stroke-width:0.5;" width="4" x="148" y="18"/><text fill="#000000" font-family="sans-serif" font-size="14" font-style="italic" lengthAdjust="spacing" textLength="69" x="76" y="39.9951">&#171;Service&#187;</text><text fill="#000000" font-family="sans-serif" font-size="14" lengthAdjust="spacing" textLength="55" x="83" y="56.292">Session</text></g><!--entity Profile--><g id="elem_Profile"><rect fill="#F1F1F1" height="62.5938" rx="2.5" ry="2.5" style="stroke:#181818;stroke-width:0.5;" width="109" x="205" y="7"/><rect fill="#F1F1F1" height="10" style="stroke:#181818;stroke-width:0.5;" width="15" x="294" y="12"/><rect fill="#F1F1F1" height="2" style="stroke:#181818;stroke-width:0.5;" width="4" x="292" y="14"/><rect fill="#F1F1F1" height="2" style="stroke:#181818;stroke-width:0.5;" width="4" x="292" y="18"/><text fill="#000000" font-family="sans-serif" font-size="14" font-style="italic" lengthAdjust="spacing" textLength="69" x="220" y="39.9951">&#171;Service&#187;</text><text fill="#000000" font-family="sans-serif" font-size="14" lengthAdjust="spacing" textLength="42" x="233.5" y="56.292">Profile</text></g><!--entity PDB--><g id="elem_PDB"><rect fill="#F1F1F1" height="62.5938" rx="2.5" ry="2.5" style="stroke:#181818;stroke-width:0.5;" width="140" x="348.5" y="7"/><rect fill="#F1F1F1" height="10" style="stroke:#181818;stroke-width:0.5;" width="15" x="468.5" y="12"/><rect fill="#F1F1F1" height="2" style="stroke:#181818;stroke-width:0.5;" width="4" x="466.5" y="14"/><rect fill="#F1F1F1" height="2" style="stroke:#181818;stroke-width:0.5;" width="4" x="466.5" y="18"/><text fill="#000000" font-family="sans-serif" font-size="14" font-style="italic" lengthAdjust="spacing" textLength="100" x="363.5" y="39.9951">&#171;Component&#187;</text><text fill="#000000" font-family="sans-serif" font-size="14" lengthAdjust="spacing" textLength="67" x="380" y="56.292">Profile DB</text></g><!--entity Authentication--><g id="elem_Authentication"><rect fill="#F1F1F1" height="62.5938" rx="2.5" ry="2.5" style="stroke:#181818;stroke-width:0.5;" width="140" x="189.5" y="129.59"/><rect fill="#F1F1F1" height="10" style="stroke:#181818;stroke-width:0.5;" width="15" x="309.5" y="134.59"/><rect fill="#F1F1F1" height="2" style="stroke:#181818;stroke-width:0.5;" width="4" x="307.5" y="136.59"/><rect fill="#F1F1F1" height="2" style="stroke:#181818;stroke-width:0.5;" width="4" x="307.5" y="140.59"/><text fill="#000000" font-family="sans-serif" font-size="14" font-style="italic" lengthAdjust="spacing" textLength="69" x="220" y="162.5851">&#171;Service&#187;</text><text fill="#000000" font-family="sans-serif" font-size="14" lengthAdjust="spacing" textLength="100" x="204.5" y="178.882">Authentication</text></g><!--entity ADB--><g id="elem_ADB"><rect fill="#F1F1F1" height="62.5938" rx="2.5" ry="2.5" style="stroke:#181818;stroke-width:0.5;" width="165" x="364" y="129.59"/><rect fill="#F1F1F1" height="10" style="stroke:#181818;stroke-width:0.5;" width="15" x="509" y="134.59"/><rect fill="#F1F1F1" height="2" style="stroke:#181818;stroke-width:0.5;" width="4" x="507" y="136.59"/><rect fill="#F1F1F1" height="2" style="stroke:#181818;stroke-width:0.5;" width="4" x="507" y="140.59"/><text fill="#000000" font-family="sans-serif" font-size="14" font-style="italic" lengthAdjust="spacing" textLength="100" x="391.5" y="162.5851">&#171;Component&#187;</text><text fill="#000000" font-family="sans-serif" font-size="14" lengthAdjust="spacing" textLength="125" x="379" y="178.882">Authentication DB</text></g><!--entity MU--><g id="elem_MU"><ellipse cx="46.5" cy="260.68" fill="#F1F1F1" rx="8" ry="8" style="stroke:#181818;stroke-width:0.5;"/><path d="M46.5,268.68 L46.5,295.68 M33.5,276.68 L59.5,276.68 M46.5,295.68 L33.5,310.68 M46.5,295.68 L59.5,310.68 " fill="none" style="stroke:#181818;stroke-width:0.5;"/><text fill="#000000" font-family="sans-serif" font-size="14" lengthAdjust="spacing" textLength="81" x="6" y="325.1751">Mobile User</text></g><!--entity WU--><g id="elem_WU"><ellipse cx="155.5" cy="260.68" fill="#F1F1F1" rx="8" ry="8" style="stroke:#181818;stroke-width:0.5;"/><path d="M155.5,268.68 L155.5,295.68 M142.5,276.68 L168.5,276.68 M155.5,295.68 L142.5,310.68 M155.5,295.68 L168.5,310.68 " fill="none" style="stroke:#181818;stroke-width:0.5;"/><text fill="#000000" font-family="sans-serif" font-size="14" lengthAdjust="spacing" textLength="67" x="122" y="325.1751">Web User</text></g><!--link Frontend to MU--><g id="link_Frontend_MU"><path d="M87.57,192.41 C80.01,210.23 70.43,232.86 62.42,251.77 " fill="none" id="Frontend-MU" style="stroke:#181818;stroke-width:1.0;"/></g><!--link Frontend to WU--><g id="link_Frontend_WU"><path d="M113.67,192.41 C121.36,210.23 131.13,232.86 139.29,251.77 " fill="none" id="Frontend-WU" style="stroke:#181818;stroke-width:1.0;"/></g><!--link Session to Frontend--><g id="link_Session_Frontend"><path d="M111.68,70.04 C109.42,88.18 106.57,111.07 104.32,129.2 " fill="none" id="Session-Frontend" style="stroke:#181818;stroke-width:1.0;"/></g><!--link Profile to Frontend--><g id="link_Profile_Frontend"><path d="M218.97,70.04 C195.04,88.18 164.87,111.07 140.96,129.2 " fill="none" id="Profile-Frontend" style="stroke:#181818;stroke-width:1.0;"/></g><!--link Frontend to Authentication--><g id="link_Frontend_Authentication"><path d="M155.47,160.89 C166.71,160.89 177.95,160.89 189.2,160.89 " fill="none" id="Frontend-Authentication" style="stroke:#181818;stroke-width:1.0;"/></g><!--link Profile to Authentication--><g id="link_Profile_Authentication"><path d="M247.89,70.04 C245.87,88.18 245.87,111.07 247.9,129.2 " fill="none" id="Profile-Authentication" style="stroke:#181818;stroke-width:1.0;"/></g><!--link Authentication to Profile--><g id="link_Authentication_Profile"><path d="M271.1,129.2 C273.13,111.07 273.13,88.18 271.11,70.04 " fill="none" id="Authentication-Profile" style="stroke:#181818;stroke-width:1.0;"/></g><!--link Profile to PDB--><g id="link_Profile_PDB"><path d="M314.47,38.29 C325.71,38.29 336.95,38.29 348.2,38.29 " fill="none" id="Profile-PDB" style="stroke:#181818;stroke-width:1.0;"/></g><!--link Session to Authentication--><g id="link_Session_Authentication"><path d="M152.21,70.04 C173.87,88.18 201.2,111.07 222.86,129.2 " fill="none" id="Session-Authentication" style="stroke:#181818;stroke-width:1.0;"/></g><!--link Session to Profile--><g id="link_Session_Profile"><path d="M170.34,38.29 C181.84,38.29 193.33,38.29 204.82,38.29 " fill="none" id="Session-Profile" style="stroke:#181818;stroke-width:1.0;"/></g><!--link Authentication to ADB--><g id="link_Authentication_ADB"><path d="M329.99,160.89 C341.22,160.89 352.44,160.89 363.67,160.89 " fill="none" id="Authentication-ADB" style="stroke:#181818;stroke-width:1.0;"/></g><!--SRC=[XP3D2eCm48JlUOh5ksyWWbPw4mGH3yM3fciDs4IIsETl8iQVAlQsp7opcmmLxq5mv1gyknHS8tzw40IGe_mmYX26XAv8ZaenmI-8J8gMzVYVW2Jse5QG9R5bRmkmfwDHTsPWjDRNX_UWsnwTR2SrrKA2buh6lgDGA2SsBPnJOhFAPK58Me0_3ZuyN4SLAOyISIFuFRRQU7DVrSQPCdC7MrsoLsSZ-t-OfQwl4szZcHeDEzyxOpVMSftyb6PZTizHNYDV]--></g></svg>