<?xml version="1.0" encoding="us-ascii" standalone="no"?><svg xmlns="http://www.w3.org/2000/svg" xmlns:xlink="http://www.w3.org/1999/xlink" contentStyleType="text/css" height="193px" preserveAspectRatio="none" style="width:611px;height:193px;background:#FFFFFF;" version="1.1" viewBox="0 0 611 193" width="611px" zoomAndPan="magnify"><defs/><g><!--cluster ms--><g id="cluster_ms"><rect fill="none" height="145.45" rx="2.5" ry="2.5" style="stroke:#181818;stroke-width:1.0;" width="427" x="7" y="42.0986"/><rect fill="none" height="10" style="stroke:#181818;stroke-width:1.0;" width="15" x="414" y="47.0986"/><rect fill="none" height="2" style="stroke:#181818;stroke-width:1.0;" width="4" x="412" y="49.0986"/><rect fill="none" height="2" style="stroke:#181818;stroke-width:1.0;" width="4" x="412" y="53.0986"/><text fill="#000000" font-family="sans-serif" font-size="14" font-weight="bold" lengthAdjust="spacing" textLength="101" x="170" y="68.0938">Microservice</text></g><text fill="#000000" font-family="sans-serif" font-size="14" lengthAdjust="spacing" textLength="4" x="414" y="20.7969">&#160;</text><rect fill="#F1F1F1" height="12" style="stroke:#181818;stroke-width:1.5;" width="12" x="410" y="36.0986"/><!--entity logic--><g id="elem_logic"><rect fill="#F1F1F1" height="46.2969" rx="2.5" ry="2.5" style="stroke:#181818;stroke-width:0.5;" width="76" x="23" y="125.2486"/><rect fill="#F1F1F1" height="10" style="stroke:#181818;stroke-width:0.5;" width="15" x="79" y="130.2486"/><rect fill="#F1F1F1" height="2" style="stroke:#181818;stroke-width:0.5;" width="4" x="77" y="132.2486"/><rect fill="#F1F1F1" height="2" style="stroke:#181818;stroke-width:0.5;" width="4" x="77" y="136.2486"/><text fill="#000000" font-family="sans-serif" font-size="14" lengthAdjust="spacing" textLength="36" x="38" y="158.2437">Logic</text></g><!--entity IRepo--><g id="elem_IRepo"><ellipse cx="143" cy="148.3986" fill="#F1F1F1" rx="8" ry="8" style="stroke:#181818;stroke-width:0.5;"/><text fill="#000000" font-family="sans-serif" font-size="14" lengthAdjust="spacing" textLength="74" x="106" y="178.3937">Repository</text></g><!--entity repository--><g id="elem_repository"><rect fill="#F1F1F1" height="46.2969" rx="2.5" ry="2.5" style="stroke:#181818;stroke-width:0.5;" width="135" x="187.5" y="125.2486"/><rect fill="#F1F1F1" height="10" style="stroke:#181818;stroke-width:0.5;" width="15" x="302.5" y="130.2486"/><rect fill="#F1F1F1" height="2" style="stroke:#181818;stroke-width:0.5;" width="4" x="300.5" y="132.2486"/><rect fill="#F1F1F1" height="2" style="stroke:#181818;stroke-width:0.5;" width="4" x="300.5" y="136.2486"/><text fill="#000000" font-family="sans-serif" font-size="14" lengthAdjust="spacing" textLength="95" x="202.5" y="158.2437">DBRepository</text></g><!--entity db--><g id="elem_db"><rect fill="#F1F1F1" height="46.2969" rx="2.5" ry="2.5" style="stroke:#181818;stroke-width:0.5;" width="106" x="499" y="18.9586"/><rect fill="#F1F1F1" height="10" style="stroke:#181818;stroke-width:0.5;" width="15" x="585" y="23.9586"/><rect fill="#F1F1F1" height="2" style="stroke:#181818;stroke-width:0.5;" width="4" x="583" y="25.9586"/><rect fill="#F1F1F1" height="2" style="stroke:#181818;stroke-width:0.5;" width="4" x="583" y="29.9586"/><text fill="#000000" font-family="sans-serif" font-size="14" lengthAdjust="spacing" textLength="66" x="514" y="51.9537">Database</text></g><!--link repository to api--><g id="link_repository_api"><path d="M289.78,124.8686 C329.19,99.3386 390.47,59.6386 409.89,47.0686 " fill="none" id="repository-api" style="stroke:#181818;stroke-width:1.0;"/></g><!--link api to db--><g id="link_api_db"><path d="M422.38,42.0986 C447.78,42.0986 473.18,42.0986 498.58,42.0986 " fill="none" id="api-db" style="stroke:#181818;stroke-width:1.0;"/></g><!--link logic to IRepo--><g id="link_logic_IRepo"><path d="M99.44,148.3986 C110.9,148.3986 122.35,148.3986 133.81,148.3986 " fill="none" id="logic-IRepo" style="stroke:#181818;stroke-width:1.0;"/></g><!--link IRepo to repository--><g id="link_IRepo_repository"><path d="M152.19,148.3986 C163.83,148.3986 175.48,148.3986 187.13,148.3986 " fill="none" id="IRepo-repository" style="stroke:#181818;stroke-width:1.0;"/></g><!--SRC=[NOx12i8m343l-OhG-tv2TX7qubLsQBiu0sufQH5a-E-s4PoiXxGlBsaIPKwoq5BGzRxuu3Cvz1d7075JPuugcVJ9yQldZ2jWFKcqUhIaJsovlyQJJ1nDFjhBD2-5zEOZeRjGain5z6KrnyRxB_h3haf_26y0s10xvUbUEbi4Qi0EhsCO06nu8vimW5sDj-O1FW00]--></g></svg>