<?xml version="1.0" encoding="us-ascii" standalone="no"?><svg xmlns="http://www.w3.org/2000/svg" xmlns:xlink="http://www.w3.org/1999/xlink" contentStyleType="text/css" height="632px" preserveAspectRatio="none" style="width:959px;height:632px;background:#FFFFFF;" version="1.1" viewBox="0 0 959 632" width="959px" zoomAndPan="magnify"><defs/><g><!--cluster userDevice--><g id="cluster_userDevice"><polygon fill="none" points="228,16,238,6,551,6,551,114.6,541,124.6,228,124.6,228,16" style="stroke:#181818;stroke-width:1.0;"/><line style="stroke:#181818;stroke-width:1.0;" x1="541" x2="551" y1="16" y2="6"/><line style="stroke:#181818;stroke-width:1.0;" x1="228" x2="541" y1="16" y2="16"/><line style="stroke:#181818;stroke-width:1.0;" x1="541" x2="541" y1="16" y2="124.6"/><text fill="#000000" font-family="sans-serif" font-size="14" font-weight="bold" lengthAdjust="spacing" textLength="95" x="338" y="31.9951">User Device</text></g><!--cluster frontend--><g id="cluster_frontend"><polygon fill="none" points="262,306.89,272,296.89,474,296.89,474,605.08,464,615.08,262,615.08,262,306.89" style="stroke:#181818;stroke-width:1.0;"/><line style="stroke:#181818;stroke-width:1.0;" x1="464" x2="474" y1="306.89" y2="296.89"/><line style="stroke:#181818;stroke-width:1.0;" x1="262" x2="464" y1="306.89" y2="306.89"/><line style="stroke:#181818;stroke-width:1.0;" x1="464" x2="464" y1="306.89" y2="615.08"/><text fill="#000000" font-family="sans-serif" font-size="14" font-style="italic" lengthAdjust="spacing" textLength="83" x="322.5" y="322.8851">&#171;container&#187;</text><text fill="#000000" font-family="sans-serif" font-size="14" font-weight="bold" lengthAdjust="spacing" textLength="136" x="296" y="339.182">Frontend Service</text></g><!--cluster session--><g id="cluster_session"><polygon fill="none" points="16,306.89,26,296.89,232,296.89,232,421.49,222,431.49,16,431.49,16,306.89" style="stroke:#181818;stroke-width:1.0;"/><line style="stroke:#181818;stroke-width:1.0;" x1="222" x2="232" y1="306.89" y2="296.89"/><line style="stroke:#181818;stroke-width:1.0;" x1="16" x2="222" y1="306.89" y2="306.89"/><line style="stroke:#181818;stroke-width:1.0;" x1="222" x2="222" y1="306.89" y2="431.49"/><text fill="#000000" font-family="sans-serif" font-size="14" font-style="italic" lengthAdjust="spacing" textLength="83" x="78.5" y="322.8851">&#171;container&#187;</text><text fill="#000000" font-family="sans-serif" font-size="14" font-weight="bold" lengthAdjust="spacing" textLength="126" x="57" y="339.182">Session Service</text></g><!--cluster auth--><g id="cluster_auth"><polygon fill="none" points="540,306.89,550,296.89,734,296.89,734,421.49,724,431.49,540,431.49,540,306.89" style="stroke:#181818;stroke-width:1.0;"/><line style="stroke:#181818;stroke-width:1.0;" x1="724" x2="734" y1="306.89" y2="296.89"/><line style="stroke:#181818;stroke-width:1.0;" x1="540" x2="724" y1="306.89" y2="306.89"/><line style="stroke:#181818;stroke-width:1.0;" x1="724" x2="724" y1="306.89" y2="431.49"/><text fill="#000000" font-family="sans-serif" font-size="14" font-style="italic" lengthAdjust="spacing" textLength="83" x="591.5" y="322.8851">&#171;container&#187;</text><text fill="#000000" font-family="sans-serif" font-size="14" font-weight="bold" lengthAdjust="spacing" textLength="101" x="582.5" y="339.182">Auth Service</text></g><!--cluster profile--><g id="cluster_profile"><polygon fill="none" points="498,490.49,508,480.49,702,480.49,702,605.08,692,615.08,498,615.08,498,490.49" style="stroke:#181818;stroke-width:1.0;"/><line style="stroke:#181818;stroke-width:1.0;" x1="692" x2="702" y1="490.49" y2="480.49"/><line style="stroke:#181818;stroke-width:1.0;" x1="498" x2="692" y1="490.49" y2="490.49"/><line style="stroke:#181818;stroke-width:1.0;" x1="692" x2="692" y1="490.49" y2="615.08"/><text fill="#000000" font-family="sans-serif" font-size="14" font-style="italic" lengthAdjust="spacing" textLength="83" x="554.5" y="506.4851">&#171;container&#187;</text><text fill="#000000" font-family="sans-serif" font-size="14" font-weight="bold" lengthAdjust="spacing" textLength="115" x="538.5" y="522.782">Profile Service</text></g><!--entity Desktop PC--><g id="elem_Desktop PC"><rect fill="#F1F1F1" height="62.5938" rx="2.5" ry="2.5" style="stroke:#181818;stroke-width:0.5;" width="122" x="244" y="46"/><rect fill="#F1F1F1" height="10" style="stroke:#181818;stroke-width:0.5;" width="15" x="346" y="51"/><rect fill="#F1F1F1" height="2" style="stroke:#181818;stroke-width:0.5;" width="4" x="344" y="53"/><rect fill="#F1F1F1" height="2" style="stroke:#181818;stroke-width:0.5;" width="4" x="344" y="57"/><text fill="#000000" font-family="sans-serif" font-size="14" font-style="italic" lengthAdjust="spacing" textLength="64" x="268" y="78.9951">&#171;device&#187;</text><text fill="#000000" font-family="sans-serif" font-size="14" lengthAdjust="spacing" textLength="82" x="259" y="95.292">Desktop PC</text></g><!--entity Mobile Phone--><g id="elem_Mobile Phone"><rect fill="#F1F1F1" height="62.5938" rx="2.5" ry="2.5" style="stroke:#181818;stroke-width:0.5;" width="134" x="401" y="46"/><rect fill="#F1F1F1" height="10" style="stroke:#181818;stroke-width:0.5;" width="15" x="515" y="51"/><rect fill="#F1F1F1" height="2" style="stroke:#181818;stroke-width:0.5;" width="4" x="513" y="53"/><rect fill="#F1F1F1" height="2" style="stroke:#181818;stroke-width:0.5;" width="4" x="513" y="57"/><text fill="#000000" font-family="sans-serif" font-size="14" font-style="italic" lengthAdjust="spacing" textLength="64" x="431" y="78.9951">&#171;device&#187;</text><text fill="#000000" font-family="sans-serif" font-size="14" lengthAdjust="spacing" textLength="94" x="416" y="95.292">Mobile Phone</text></g><!--entity Compiled Vue App--><g id="elem_Compiled Vue App"><rect fill="#F1F1F1" height="62.5938" rx="2.5" ry="2.5" style="stroke:#181818;stroke-width:0.5;" width="167" x="291.5" y="536.49"/><rect fill="#F1F1F1" height="10" style="stroke:#181818;stroke-width:0.5;" width="15" x="438.5" y="541.49"/><rect fill="#F1F1F1" height="2" style="stroke:#181818;stroke-width:0.5;" width="4" x="436.5" y="543.49"/><rect fill="#F1F1F1" height="2" style="stroke:#181818;stroke-width:0.5;" width="4" x="436.5" y="547.49"/><text fill="#000000" font-family="sans-serif" font-size="14" font-style="italic" lengthAdjust="spacing" textLength="81" x="329.5" y="569.4851">&#171;Frontend&#187;</text><text fill="#000000" font-family="sans-serif" font-size="14" lengthAdjust="spacing" textLength="127" x="306.5" y="585.782">Compiled Vue App</text></g><!--entity Nginx--><g id="elem_Nginx"><rect fill="#F1F1F1" height="62.5938" rx="2.5" ry="2.5" style="stroke:#181818;stroke-width:0.5;" width="135" x="318.5" y="352.89"/><rect fill="#F1F1F1" height="10" style="stroke:#181818;stroke-width:0.5;" width="15" x="433.5" y="357.89"/><rect fill="#F1F1F1" height="2" style="stroke:#181818;stroke-width:0.5;" width="4" x="431.5" y="359.89"/><rect fill="#F1F1F1" height="2" style="stroke:#181818;stroke-width:0.5;" width="4" x="431.5" y="363.89"/><text fill="#000000" font-family="sans-serif" font-size="14" font-style="italic" lengthAdjust="spacing" textLength="95" x="333.5" y="385.8851">&#171;WebServer&#187;</text><text fill="#000000" font-family="sans-serif" font-size="14" lengthAdjust="spacing" textLength="38" x="362" y="402.182">Nginx</text></g><!--entity Session Microservice--><g id="elem_Session Microservice"><rect fill="#F1F1F1" height="62.5938" rx="2.5" ry="2.5" style="stroke:#181818;stroke-width:0.5;" width="185" x="31.5" y="352.89"/><rect fill="#F1F1F1" height="10" style="stroke:#181818;stroke-width:0.5;" width="15" x="196.5" y="357.89"/><rect fill="#F1F1F1" height="2" style="stroke:#181818;stroke-width:0.5;" width="4" x="194.5" y="359.89"/><rect fill="#F1F1F1" height="2" style="stroke:#181818;stroke-width:0.5;" width="4" x="194.5" y="363.89"/><text fill="#000000" font-family="sans-serif" font-size="14" font-style="italic" lengthAdjust="spacing" textLength="69" x="84.5" y="385.8851">&#171;Service&#187;</text><text fill="#000000" font-family="sans-serif" font-size="14" lengthAdjust="spacing" textLength="145" x="46.5" y="402.182">Session Microservice</text></g><!--entity Auth Microservice--><g id="elem_Auth Microservice"><rect fill="#F1F1F1" height="62.5938" rx="2.5" ry="2.5" style="stroke:#181818;stroke-width:0.5;" width="162" x="556" y="352.89"/><rect fill="#F1F1F1" height="10" style="stroke:#181818;stroke-width:0.5;" width="15" x="698" y="357.89"/><rect fill="#F1F1F1" height="2" style="stroke:#181818;stroke-width:0.5;" width="4" x="696" y="359.89"/><rect fill="#F1F1F1" height="2" style="stroke:#181818;stroke-width:0.5;" width="4" x="696" y="363.89"/><text fill="#000000" font-family="sans-serif" font-size="14" font-style="italic" lengthAdjust="spacing" textLength="69" x="597.5" y="385.8851">&#171;Service&#187;</text><text fill="#000000" font-family="sans-serif" font-size="14" lengthAdjust="spacing" textLength="122" x="571" y="402.182">Auth Microservice</text></g><!--entity Profile Microservice--><g id="elem_Profile Microservice"><rect fill="#F1F1F1" height="62.5938" rx="2.5" ry="2.5" style="stroke:#181818;stroke-width:0.5;" width="172" x="514" y="536.49"/><rect fill="#F1F1F1" height="10" style="stroke:#181818;stroke-width:0.5;" width="15" x="666" y="541.49"/><rect fill="#F1F1F1" height="2" style="stroke:#181818;stroke-width:0.5;" width="4" x="664" y="543.49"/><rect fill="#F1F1F1" height="2" style="stroke:#181818;stroke-width:0.5;" width="4" x="664" y="547.49"/><text fill="#000000" font-family="sans-serif" font-size="14" font-style="italic" lengthAdjust="spacing" textLength="69" x="560.5" y="569.4851">&#171;Service&#187;</text><text fill="#000000" font-family="sans-serif" font-size="14" lengthAdjust="spacing" textLength="132" x="529" y="585.782">Profile Microservice</text></g><!--entity Internet--><g id="elem_Internet"><path d="M353.3988,197.4259 C355.9638,191.3893 359.934,190.8086 364.7765,194.8565 C368.2724,190.0522 373.434,188.9207 376.4051,195.3975 C378.2201,190.0323 382.7807,189.807 386.2423,193.6356 C389.801,189.6078 395.5415,189.2781 397.4392,195.4576 C400.8776,190.6845 405.2059,189.5358 408.7597,195.334 C413.2738,189.8606 416.7886,190.4011 420.0842,196.5238 C429.1733,199.1517 432.5441,203.4833 427.4225,212.5985 C433.1203,219.5383 428.8494,226.8118 420.9515,228.0623 C418.8116,233.5021 414.8219,235.0209 410.1207,230.9921 C406.9415,236.6008 402.5858,237.334 398.0572,232.5599 C396.5309,238.6836 392.476,241.3844 386.7206,237.2199 C381.5438,241.2585 377.8058,239.0273 376.6306,233.1486 C371.2901,237.5801 366.7708,237.1968 363.9358,230.3326 C359.8968,233.9147 355.7822,232.6293 354.1123,227.6228 C345.5685,223.9959 344.8125,217.1713 350.9753,210.8018 C344.7885,205.0275 345.2846,200.6092 353.3988,197.4259 " fill="#F1F1F1" style="stroke:#181818;stroke-width:0.5;"/><text fill="#000000" font-family="sans-serif" font-size="14" lengthAdjust="spacing" textLength="54" x="359" y="215.5951">Internet</text></g><!--entity Auth Database--><g id="elem_Auth Database"><polygon fill="#F1F1F1" points="800,362.89,810,352.89,942,352.89,942,405.4838,932,415.4838,800,415.4838,800,362.89" style="stroke:#181818;stroke-width:0.5;"/><line style="stroke:#181818;stroke-width:0.5;" x1="932" x2="942" y1="362.89" y2="352.89"/><line style="stroke:#181818;stroke-width:0.5;" x1="800" x2="932" y1="362.89" y2="362.89"/><line style="stroke:#181818;stroke-width:0.5;" x1="932" x2="932" y1="362.89" y2="415.4838"/><text fill="#000000" font-family="sans-serif" font-size="14" font-style="italic" lengthAdjust="spacing" textLength="83" x="824.5" y="385.8851">&#171;container&#187;</text><text fill="#000000" font-family="sans-serif" font-size="14" lengthAdjust="spacing" textLength="102" x="815" y="402.182">Auth Database</text></g><!--entity Profile Database--><g id="elem_Profile Database"><polygon fill="#F1F1F1" points="769,546.49,779,536.49,921,536.49,921,589.0838,911,599.0838,769,599.0838,769,546.49" style="stroke:#181818;stroke-width:0.5;"/><line style="stroke:#181818;stroke-width:0.5;" x1="911" x2="921" y1="546.49" y2="536.49"/><line style="stroke:#181818;stroke-width:0.5;" x1="769" x2="911" y1="546.49" y2="546.49"/><line style="stroke:#181818;stroke-width:0.5;" x1="911" x2="911" y1="546.49" y2="599.0838"/><text fill="#000000" font-family="sans-serif" font-size="14" font-style="italic" lengthAdjust="spacing" textLength="83" x="798.5" y="569.4851">&#171;container&#187;</text><text fill="#000000" font-family="sans-serif" font-size="14" lengthAdjust="spacing" textLength="112" x="784" y="585.782">Profile Database</text></g><!--link Desktop PC to Internet--><g id="link_Desktop PC_Internet"><path d="M323.79,108.79 C338.55,132.75 355.6421,160.4821 368.9721,182.1121 " fill="none" id="Desktop PC-to-Internet" style="stroke:#181818;stroke-width:1.0;"/><polygon fill="#181818" points="372.12,187.22,370.8035,177.4595,369.4968,182.9634,363.9929,181.6567,372.12,187.22" style="stroke:#181818;stroke-width:1.0;"/><text fill="#000000" font-family="sans-serif" font-size="13" lengthAdjust="spacing" textLength="32" x="353.76" y="153.6669">HTTP</text></g><!--link Mobile Phone to Internet--><g id="link_Mobile Phone_Internet"><path d="M448.98,108.79 C434.03,132.75 416.7151,160.499 403.2251,182.129 " fill="none" id="Mobile Phone-to-Internet" style="stroke:#181818;stroke-width:1.0;"/><polygon fill="#181818" points="400.05,187.22,408.2067,181.7002,402.6959,182.9775,401.4187,177.4667,400.05,187.22" style="stroke:#181818;stroke-width:1.0;"/><text fill="#000000" font-family="sans-serif" font-size="13" lengthAdjust="spacing" textLength="32" x="428" y="153.6669">HTTP</text></g><!--link Internet to Nginx--><g id="link_Internet_Nginx"><path d="M386,234.16 C386,264.47 386,312.66 386,346.67 " fill="none" id="Internet-to-Nginx" style="stroke:#181818;stroke-width:1.0;"/><polygon fill="#181818" points="386,352.67,390,343.67,386,347.67,382,343.67,386,352.67" style="stroke:#181818;stroke-width:1.0;"/><text fill="#000000" font-family="sans-serif" font-size="13" lengthAdjust="spacing" textLength="32" x="387" y="276.9569">HTTP</text></g><!--link Nginx to Compiled Vue App--><g id="link_Nginx_Compiled Vue App"><path d="M384.16,415.58 C382.13,449.11 379.2423,496.7409 377.2123,530.3009 " fill="none" id="Nginx-to-Compiled Vue App" style="stroke:#181818;stroke-width:1.0;stroke-dasharray:7.0,7.0;"/><polygon fill="#181818" points="376.85,536.29,381.3861,527.5479,377.1519,531.2991,373.4007,527.0649,376.85,536.29" style="stroke:#181818;stroke-width:1.0;"/><text fill="#000000" font-family="sans-serif" font-size="13" lengthAdjust="spacing" textLength="46" x="383.13" y="460.5569">&#171;uses&#187;</text></g><!--link Session Microservice to Nginx--><g id="link_Session Microservice_Nginx"><path d="M216.74,384.19 C250.16,384.19 287.21,384.19 318.11,384.19 " fill="none" id="Session Microservice-Nginx" style="stroke:#181818;stroke-width:1.0;"/><text fill="#000000" font-family="sans-serif" font-size="13" lengthAdjust="spacing" textLength="66" x="234.5" y="377.2569">&#171;intranet&#187;</text></g><!--link Nginx to Auth Microservice--><g id="link_Nginx_Auth Microservice"><path d="M453.92,384.19 C485.28,384.19 522.77,384.19 555.63,384.19 " fill="none" id="Nginx-Auth Microservice" style="stroke:#181818;stroke-width:1.0;"/><text fill="#000000" font-family="sans-serif" font-size="13" lengthAdjust="spacing" textLength="66" x="471.75" y="377.2569">&#171;intranet&#187;</text></g><!--link Nginx to Profile Microservice--><g id="link_Nginx_Profile Microservice"><path d="M421.82,415.58 C461.32,449.11 524.51,502.73 564.06,536.29 " fill="none" id="Nginx-Profile Microservice" style="stroke:#181818;stroke-width:1.0;"/><text fill="#000000" font-family="sans-serif" font-size="13" lengthAdjust="spacing" textLength="66" x="474.83" y="460.5569">&#171;intranet&#187;</text></g><!--link Auth Microservice to Auth Database--><g id="link_Auth Microservice_Auth Database"><path d="M718.19,384.19 C744.72,384.19 767.97,384.19 793.72,384.19 " fill="none" id="Auth Microservice-to-Auth Database" style="stroke:#181818;stroke-width:1.0;"/><polygon fill="#181818" points="799.72,384.19,790.72,380.19,794.72,384.19,790.72,388.19,799.72,384.19" style="stroke:#181818;stroke-width:1.0;"/><text fill="#000000" font-family="sans-serif" font-size="13" lengthAdjust="spacing" textLength="46" x="736" y="377.2569">&#171;uses&#187;</text></g><!--link Profile Microservice to Profile Database--><g id="link_Profile Microservice_Profile Database"><path d="M686.38,567.78 C713.24,567.78 736.65,567.78 762.77,567.78 " fill="none" id="Profile Microservice-to-Profile Database" style="stroke:#181818;stroke-width:1.0;"/><polygon fill="#181818" points="768.77,567.78,759.77,563.78,763.77,567.78,759.77,571.78,768.77,567.78" style="stroke:#181818;stroke-width:1.0;"/><text fill="#000000" font-family="sans-serif" font-size="13" lengthAdjust="spacing" textLength="46" x="704.5" y="560.8469">&#171;uses&#187;</text></g><!--SRC=[ZLBTQiCW5BxtAGwvJnzW1A4qZEsY8z1kknYxiCbfAyiqgDa6O-y-ZTgcIHFgdNv_Hp-5h12IPuqASlpY9IR0DBHsxxVmIy2kjnprXv4D5AjtoBAgmoZrs5hkU8rG7AN02_IFaBAMRGMFmg0IQ0WHNTwzalP4LB11vKEphBH7Z0jKbBeHzf4I1bZ9pyQcLF3I8YoRnWL5cpZ8qu6B7mUyuiuvEoytX0_TeDPSYfbC7HWXCWhMl5HIUvLp3mPzxsLhZZF6pC71jQFUQfapmtPC3pqZfr1oxvv-Eha9Z10U1JVaH-ha21T_8atfgMMuWuVjjY23Zt6DGau73ktwEq5-jrXGI8Rb9vQKPVQNQZU89wOrxarwhhb_HS_dmYXciwmcI1G_79rcrCcKe9BV8Zs_pQo4NBCDaNJKR-z24_PdwRYQ_dFy0m00]--></g></svg>