<?xml version="1.0" encoding="us-ascii" standalone="no"?><svg xmlns="http://www.w3.org/2000/svg" xmlns:xlink="http://www.w3.org/1999/xlink" contentStyleType="text/css" height="648px" preserveAspectRatio="none" style="width:2233px;height:648px;background:#FFFFFF;" version="1.1" viewBox="0 0 2233 648" width="2233px" zoomAndPan="magnify"><defs/><g><!--class IUser--><g id="elem_IUser"><rect codeLine="2" fill="#F1F1F1" height="80.5938" id="IUser" rx="2.5" ry="2.5" style="stroke:#181818;stroke-width:0.5;" width="127" x="635.5" y="7"/><ellipse cx="677.5" cy="23" fill="#B4A7E5" rx="11" ry="11" style="stroke:#181818;stroke-width:1.0;"/><path d="M673.4219,18.7656 L673.4219,16.6094 L680.8125,16.6094 L680.8125,18.7656 L678.3438,18.7656 L678.3438,26.8438 L680.8125,26.8438 L680.8125,29 L673.4219,29 L673.4219,26.8438 L675.8906,26.8438 L675.8906,18.7656 L673.4219,18.7656 Z " fill="#000000"/><text fill="#000000" font-family="sans-serif" font-size="14" font-style="italic" lengthAdjust="spacing" textLength="35" x="697.5" y="27.8467">IUser</text><line style="stroke:#181818;stroke-width:0.5;" x1="636.5" x2="761.5" y1="39" y2="39"/><text fill="#000000" font-family="sans-serif" font-size="14" lengthAdjust="spacing" textLength="84" x="641.5" y="55.9951">email: string</text><text fill="#000000" font-family="sans-serif" font-size="14" lengthAdjust="spacing" textLength="115" x="641.5" y="72.292">password: string</text><line style="stroke:#181818;stroke-width:0.5;" x1="636.5" x2="761.5" y1="79.5938" y2="79.5938"/></g><!--class TokenData--><g id="elem_TokenData"><rect codeLine="7" fill="#F1F1F1" height="80.5938" id="TokenData" rx="2.5" ry="2.5" style="stroke:#181818;stroke-width:0.5;" width="108" x="158" y="172.74"/><ellipse cx="173" cy="188.74" fill="#ADD1B2" rx="11" ry="11" style="stroke:#181818;stroke-width:1.0;"/><path d="M175.9688,194.3806 Q175.3906,194.6775 174.75,194.8181 Q174.1094,194.9744 173.4063,194.9744 Q170.9063,194.9744 169.5781,193.3338 Q168.2656,191.6775 168.2656,188.5525 Q168.2656,185.4275 169.5781,183.7713 Q170.9063,182.115 173.4063,182.115 Q174.1094,182.115 174.75,182.2713 Q175.4063,182.4275 175.9688,182.7244 L175.9688,185.4431 Q175.3438,184.865 174.75,184.5994 Q174.1563,184.3181 173.5313,184.3181 Q172.1875,184.3181 171.5,185.3963 Q170.8125,186.4588 170.8125,188.5525 Q170.8125,190.6463 171.5,191.7244 Q172.1875,192.7869 173.5313,192.7869 Q174.1563,192.7869 174.75,192.5213 Q175.3438,192.24 175.9688,191.6619 L175.9688,194.3806 Z " fill="#000000"/><text fill="#000000" font-family="sans-serif" font-size="14" lengthAdjust="spacing" textLength="76" x="187" y="193.5867">TokenData</text><line style="stroke:#181818;stroke-width:0.5;" x1="159" x2="265" y1="204.74" y2="204.74"/><text fill="#000000" font-family="sans-serif" font-size="14" lengthAdjust="spacing" textLength="60" x="164" y="221.7351">id: string</text><text fill="#000000" font-family="sans-serif" font-size="14" lengthAdjust="spacing" textLength="84" x="164" y="238.032">email: string</text><line style="stroke:#181818;stroke-width:0.5;" x1="159" x2="265" y1="245.3338" y2="245.3338"/></g><!--class IUserRepository--><g id="elem_IUserRepository"><rect codeLine="12" fill="#F1F1F1" height="96.8906" id="IUserRepository" rx="2.5" ry="2.5" style="stroke:#181818;stroke-width:0.5;" width="429" x="484.5" y="164.59"/><ellipse cx="640.25" cy="180.59" fill="#B4A7E5" rx="11" ry="11" style="stroke:#181818;stroke-width:1.0;"/><path d="M636.1719,176.3556 L636.1719,174.1994 L643.5625,174.1994 L643.5625,176.3556 L641.0938,176.3556 L641.0938,184.4338 L643.5625,184.4338 L643.5625,186.59 L636.1719,186.59 L636.1719,184.4338 L638.6406,184.4338 L638.6406,176.3556 L636.1719,176.3556 Z " fill="#000000"/><text fill="#000000" font-family="sans-serif" font-size="14" font-style="italic" lengthAdjust="spacing" textLength="109" x="660.75" y="185.4367">IUserRepository</text><line style="stroke:#181818;stroke-width:0.5;" x1="485.5" x2="912.5" y1="196.59" y2="196.59"/><line style="stroke:#181818;stroke-width:0.5;" x1="485.5" x2="912.5" y1="204.59" y2="204.59"/><text fill="#000000" font-family="sans-serif" font-size="14" lengthAdjust="spacing" textLength="417" x="490.5" y="221.5851">createUser(email: string, password: string): Promise&lt;IUser&gt;</text><text fill="#000000" font-family="sans-serif" font-size="14" lengthAdjust="spacing" textLength="328" x="490.5" y="237.882">findUserByEmail(email: string): Promise&lt;IUser&gt;</text><text fill="#000000" font-family="sans-serif" font-size="14" lengthAdjust="spacing" textLength="287" x="490.5" y="254.1789">deleteUser(email: string): Promise&lt;void&gt;</text></g><!--class IAuthService--><g id="elem_IAuthService"><rect codeLine="18" fill="#F1F1F1" height="96.8906" id="IAuthService" rx="2.5" ry="2.5" style="stroke:#181818;stroke-width:0.5;" width="406" x="496" y="346.63"/><ellipse cx="650.75" cy="362.63" fill="#B4A7E5" rx="11" ry="11" style="stroke:#181818;stroke-width:1.0;"/><path d="M646.6719,358.3956 L646.6719,356.2394 L654.0625,356.2394 L654.0625,358.3956 L651.5938,358.3956 L651.5938,366.4738 L654.0625,366.4738 L654.0625,368.63 L646.6719,368.63 L646.6719,366.4738 L649.1406,366.4738 L649.1406,358.3956 L646.6719,358.3956 Z " fill="#000000"/><text fill="#000000" font-family="sans-serif" font-size="14" font-style="italic" lengthAdjust="spacing" textLength="88" x="671.25" y="367.4767">IAuthService</text><line style="stroke:#181818;stroke-width:0.5;" x1="497" x2="901" y1="378.63" y2="378.63"/><line style="stroke:#181818;stroke-width:0.5;" x1="497" x2="901" y1="386.63" y2="386.63"/><text fill="#000000" font-family="sans-serif" font-size="14" lengthAdjust="spacing" textLength="394" x="502" y="403.6251">register(email: string, password: string): Promise&lt;IUser&gt;</text><text fill="#000000" font-family="sans-serif" font-size="14" lengthAdjust="spacing" textLength="378" x="502" y="419.922">login(email: string, password: string): Promise&lt;string&gt;</text><text fill="#000000" font-family="sans-serif" font-size="14" lengthAdjust="spacing" textLength="255" x="502" y="436.2189">logout(email: string): Promise&lt;void&gt;</text></g><!--class IPasswordService--><g id="elem_IPasswordService"><rect codeLine="24" fill="#F1F1F1" height="80.5938" id="IPasswordService" rx="2.5" ry="2.5" style="stroke:#181818;stroke-width:0.5;" width="593" x="1633.5" y="354.78"/><ellipse cx="1866.25" cy="370.78" fill="#B4A7E5" rx="11" ry="11" style="stroke:#181818;stroke-width:1.0;"/><path d="M1862.1719,366.5456 L1862.1719,364.3894 L1869.5625,364.3894 L1869.5625,366.5456 L1867.0938,366.5456 L1867.0938,374.6238 L1869.5625,374.6238 L1869.5625,376.78 L1862.1719,376.78 L1862.1719,374.6238 L1864.6406,374.6238 L1864.6406,366.5456 L1862.1719,366.5456 Z " fill="#000000"/><text fill="#000000" font-family="sans-serif" font-size="14" font-style="italic" lengthAdjust="spacing" textLength="119" x="1886.75" y="375.6267">IPasswordService</text><line style="stroke:#181818;stroke-width:0.5;" x1="1634.5" x2="2225.5" y1="386.78" y2="386.78"/><line style="stroke:#181818;stroke-width:0.5;" x1="1634.5" x2="2225.5" y1="394.78" y2="394.78"/><text fill="#000000" font-family="sans-serif" font-size="14" lengthAdjust="spacing" textLength="354" x="1639.5" y="411.7751">hashPassword(password: string): Promise&lt;string&gt;</text><text fill="#000000" font-family="sans-serif" font-size="14" lengthAdjust="spacing" textLength="581" x="1639.5" y="428.072">comparePasswords(password: string, hashedPassword: string): Promise&lt;boolean&gt;</text></g><!--class AuthUseCase--><g id="elem_AuthUseCase"><rect codeLine="29" fill="#F1F1F1" height="96.8906" id="AuthUseCase" rx="2.5" ry="2.5" style="stroke:#181818;stroke-width:0.5;" width="406" x="496" y="536.82"/><ellipse cx="647.75" cy="552.82" fill="#ADD1B2" rx="11" ry="11" style="stroke:#181818;stroke-width:1.0;"/><path d="M650.7188,558.4606 Q650.1406,558.7575 649.5,558.8981 Q648.8594,559.0544 648.1563,559.0544 Q645.6563,559.0544 644.3281,557.4138 Q643.0156,555.7575 643.0156,552.6325 Q643.0156,549.5075 644.3281,547.8513 Q645.6563,546.195 648.1563,546.195 Q648.8594,546.195 649.5,546.3513 Q650.1563,546.5075 650.7188,546.8044 L650.7188,549.5231 Q650.0938,548.945 649.5,548.6794 Q648.9063,548.3981 648.2813,548.3981 Q646.9375,548.3981 646.25,549.4763 Q645.5625,550.5388 645.5625,552.6325 Q645.5625,554.7263 646.25,555.8044 Q646.9375,556.8669 648.2813,556.8669 Q648.9063,556.8669 649.5,556.6013 Q650.0938,556.32 650.7188,555.7419 L650.7188,558.4606 Z " fill="#000000"/><text fill="#000000" font-family="sans-serif" font-size="14" lengthAdjust="spacing" textLength="94" x="668.25" y="557.6667">AuthUseCase</text><line style="stroke:#181818;stroke-width:0.5;" x1="497" x2="901" y1="568.82" y2="568.82"/><line style="stroke:#181818;stroke-width:0.5;" x1="497" x2="901" y1="576.82" y2="576.82"/><text fill="#000000" font-family="sans-serif" font-size="14" lengthAdjust="spacing" textLength="394" x="502" y="593.8151">register(email: string, password: string): Promise&lt;IUser&gt;</text><text fill="#000000" font-family="sans-serif" font-size="14" lengthAdjust="spacing" textLength="378" x="502" y="610.112">login(email: string, password: string): Promise&lt;string&gt;</text><text fill="#000000" font-family="sans-serif" font-size="14" lengthAdjust="spacing" textLength="255" x="502" y="626.4089">logout(email: string): Promise&lt;void&gt;</text></g><!--class PasswordUseCase--><g id="elem_PasswordUseCase"><rect codeLine="35" fill="#F1F1F1" height="80.5938" id="PasswordUseCase" rx="2.5" ry="2.5" style="stroke:#181818;stroke-width:0.5;" width="593" x="1323.5" y="544.97"/><ellipse cx="1551.25" cy="560.97" fill="#ADD1B2" rx="11" ry="11" style="stroke:#181818;stroke-width:1.0;"/><path d="M1554.2188,566.6106 Q1553.6406,566.9075 1553,567.0481 Q1552.3594,567.2044 1551.6563,567.2044 Q1549.1563,567.2044 1547.8281,565.5638 Q1546.5156,563.9075 1546.5156,560.7825 Q1546.5156,557.6575 1547.8281,556.0013 Q1549.1563,554.345 1551.6563,554.345 Q1552.3594,554.345 1553,554.5013 Q1553.6563,554.6575 1554.2188,554.9544 L1554.2188,557.6731 Q1553.5938,557.095 1553,556.8294 Q1552.4063,556.5481 1551.7813,556.5481 Q1550.4375,556.5481 1549.75,557.6263 Q1549.0625,558.6888 1549.0625,560.7825 Q1549.0625,562.8763 1549.75,563.9544 Q1550.4375,565.0169 1551.7813,565.0169 Q1552.4063,565.0169 1553,564.7513 Q1553.5938,564.47 1554.2188,563.8919 L1554.2188,566.6106 Z " fill="#000000"/><text fill="#000000" font-family="sans-serif" font-size="14" lengthAdjust="spacing" textLength="129" x="1571.75" y="565.8167">PasswordUseCase</text><line style="stroke:#181818;stroke-width:0.5;" x1="1324.5" x2="1915.5" y1="576.97" y2="576.97"/><line style="stroke:#181818;stroke-width:0.5;" x1="1324.5" x2="1915.5" y1="584.97" y2="584.97"/><text fill="#000000" font-family="sans-serif" font-size="14" lengthAdjust="spacing" textLength="354" x="1329.5" y="601.9651">hashPassword(password: string): Promise&lt;string&gt;</text><text fill="#000000" font-family="sans-serif" font-size="14" lengthAdjust="spacing" textLength="581" x="1329.5" y="618.262">comparePasswords(password: string, hashedPassword: string): Promise&lt;boolean&gt;</text></g><!--class ITokenService--><g id="elem_ITokenService"><rect codeLine="40" fill="#F1F1F1" height="113.1875" id="ITokenService" rx="2.5" ry="2.5" style="stroke:#181818;stroke-width:0.5;" width="410" x="7" y="528.67"/><ellipse cx="158.25" cy="544.67" fill="#B4A7E5" rx="11" ry="11" style="stroke:#181818;stroke-width:1.0;"/><path d="M154.1719,540.4356 L154.1719,538.2794 L161.5625,538.2794 L161.5625,540.4356 L159.0938,540.4356 L159.0938,548.5138 L161.5625,548.5138 L161.5625,550.67 L154.1719,550.67 L154.1719,548.5138 L156.6406,548.5138 L156.6406,540.4356 L154.1719,540.4356 Z " fill="#000000"/><text fill="#000000" font-family="sans-serif" font-size="14" font-style="italic" lengthAdjust="spacing" textLength="99" x="178.75" y="549.5167">ITokenService</text><line style="stroke:#181818;stroke-width:0.5;" x1="8" x2="416" y1="560.67" y2="560.67"/><line style="stroke:#181818;stroke-width:0.5;" x1="8" x2="416" y1="568.67" y2="568.67"/><text fill="#000000" font-family="sans-serif" font-size="14" lengthAdjust="spacing" textLength="398" x="13" y="585.6651">generateToken(data: TokenData, expiresIn: string): string</text><text fill="#000000" font-family="sans-serif" font-size="14" lengthAdjust="spacing" textLength="392" x="13" y="601.962">validateToken(accessToken: string): Promise&lt;boolean&gt;</text><text fill="#000000" font-family="sans-serif" font-size="14" lengthAdjust="spacing" textLength="372" x="13" y="618.2589">refreshToken(refreshToken: string): Promise&lt;string&gt;</text><text fill="#000000" font-family="sans-serif" font-size="14" lengthAdjust="spacing" textLength="371" x="13" y="634.5557">getData(accessToken: string): Promise&lt;TokenData&gt;</text></g><!--class TokenUseCase--><g id="elem_TokenUseCase"><rect codeLine="47" fill="#F1F1F1" height="113.1875" id="TokenUseCase" rx="2.5" ry="2.5" style="stroke:#181818;stroke-width:0.5;" width="410" x="7" y="338.48"/><ellipse cx="154.75" cy="354.48" fill="#ADD1B2" rx="11" ry="11" style="stroke:#181818;stroke-width:1.0;"/><path d="M157.7188,360.1206 Q157.1406,360.4175 156.5,360.5581 Q155.8594,360.7144 155.1563,360.7144 Q152.6563,360.7144 151.3281,359.0738 Q150.0156,357.4175 150.0156,354.2925 Q150.0156,351.1675 151.3281,349.5113 Q152.6563,347.855 155.1563,347.855 Q155.8594,347.855 156.5,348.0113 Q157.1563,348.1675 157.7188,348.4644 L157.7188,351.1831 Q157.0938,350.605 156.5,350.3394 Q155.9063,350.0581 155.2813,350.0581 Q153.9375,350.0581 153.25,351.1363 Q152.5625,352.1988 152.5625,354.2925 Q152.5625,356.3863 153.25,357.4644 Q153.9375,358.5269 155.2813,358.5269 Q155.9063,358.5269 156.5,358.2613 Q157.0938,357.98 157.7188,357.4019 L157.7188,360.1206 Z " fill="#000000"/><text fill="#000000" font-family="sans-serif" font-size="14" lengthAdjust="spacing" textLength="106" x="175.25" y="359.3267">TokenUseCase</text><line style="stroke:#181818;stroke-width:0.5;" x1="8" x2="416" y1="370.48" y2="370.48"/><line style="stroke:#181818;stroke-width:0.5;" x1="8" x2="416" y1="378.48" y2="378.48"/><text fill="#000000" font-family="sans-serif" font-size="14" lengthAdjust="spacing" textLength="398" x="13" y="395.4751">generateToken(data: TokenData, expiresIn: string): string</text><text fill="#000000" font-family="sans-serif" font-size="14" lengthAdjust="spacing" textLength="392" x="13" y="411.772">validateToken(accessToken: string): Promise&lt;boolean&gt;</text><text fill="#000000" font-family="sans-serif" font-size="14" lengthAdjust="spacing" textLength="372" x="13" y="428.0689">refreshToken(refreshToken: string): Promise&lt;string&gt;</text><text fill="#000000" font-family="sans-serif" font-size="14" lengthAdjust="spacing" textLength="371" x="13" y="444.3657">getData(accessToken: string): Promise&lt;TokenData&gt;</text></g><!--class IProfileRepository--><g id="elem_IProfileRepository"><rect codeLine="54" fill="#F1F1F1" height="64.2969" id="IProfileRepository" rx="2.5" ry="2.5" style="stroke:#181818;stroke-width:0.5;" width="616" x="982" y="15.15"/><ellipse cx="1226.25" cy="31.15" fill="#B4A7E5" rx="11" ry="11" style="stroke:#181818;stroke-width:1.0;"/><path d="M1222.1719,26.9156 L1222.1719,24.7594 L1229.5625,24.7594 L1229.5625,26.9156 L1227.0938,26.9156 L1227.0938,34.9937 L1229.5625,34.9937 L1229.5625,37.15 L1222.1719,37.15 L1222.1719,34.9937 L1224.6406,34.9937 L1224.6406,26.9156 L1222.1719,26.9156 Z " fill="#000000"/><text fill="#000000" font-family="sans-serif" font-size="14" font-style="italic" lengthAdjust="spacing" textLength="119" x="1246.75" y="35.9967">IProfileRepository</text><line style="stroke:#181818;stroke-width:0.5;" x1="983" x2="1597" y1="47.15" y2="47.15"/><line style="stroke:#181818;stroke-width:0.5;" x1="983" x2="1597" y1="55.15" y2="55.15"/><text fill="#000000" font-family="sans-serif" font-size="14" lengthAdjust="spacing" textLength="604" x="988" y="72.1451">createUserProfile(email: string, username: string, accessToken: string): Promise&lt;void&gt;</text></g><!--class IProfileService--><g id="elem_IProfileService"><rect codeLine="58" fill="#F1F1F1" height="64.2969" id="IProfileService" rx="2.5" ry="2.5" style="stroke:#181818;stroke-width:0.5;" width="616" x="982" y="180.89"/><ellipse cx="1237.75" cy="196.89" fill="#B4A7E5" rx="11" ry="11" style="stroke:#181818;stroke-width:1.0;"/><path d="M1233.6719,192.6556 L1233.6719,190.4994 L1241.0625,190.4994 L1241.0625,192.6556 L1238.5938,192.6556 L1238.5938,200.7338 L1241.0625,200.7338 L1241.0625,202.89 L1233.6719,202.89 L1233.6719,200.7338 L1236.1406,200.7338 L1236.1406,192.6556 L1233.6719,192.6556 Z " fill="#000000"/><text fill="#000000" font-family="sans-serif" font-size="14" font-style="italic" lengthAdjust="spacing" textLength="96" x="1258.25" y="201.7367">IProfileService</text><line style="stroke:#181818;stroke-width:0.5;" x1="983" x2="1597" y1="212.89" y2="212.89"/><line style="stroke:#181818;stroke-width:0.5;" x1="983" x2="1597" y1="220.89" y2="220.89"/><text fill="#000000" font-family="sans-serif" font-size="14" lengthAdjust="spacing" textLength="604" x="988" y="237.8851">createUserProfile(email: string, username: string, accessToken: string): Promise&lt;void&gt;</text></g><!--class ProfileUseCase--><g id="elem_ProfileUseCase"><rect codeLine="62" fill="#F1F1F1" height="64.2969" id="ProfileUseCase" rx="2.5" ry="2.5" style="stroke:#181818;stroke-width:0.5;" width="616" x="982" y="362.93"/><ellipse cx="1233.75" cy="378.93" fill="#ADD1B2" rx="11" ry="11" style="stroke:#181818;stroke-width:1.0;"/><path d="M1236.7188,384.5706 Q1236.1406,384.8675 1235.5,385.0081 Q1234.8594,385.1644 1234.1563,385.1644 Q1231.6563,385.1644 1230.3281,383.5238 Q1229.0156,381.8675 1229.0156,378.7425 Q1229.0156,375.6175 1230.3281,373.9613 Q1231.6563,372.305 1234.1563,372.305 Q1234.8594,372.305 1235.5,372.4613 Q1236.1563,372.6175 1236.7188,372.9144 L1236.7188,375.6331 Q1236.0938,375.055 1235.5,374.7894 Q1234.9063,374.5081 1234.2813,374.5081 Q1232.9375,374.5081 1232.25,375.5863 Q1231.5625,376.6488 1231.5625,378.7425 Q1231.5625,380.8363 1232.25,381.9144 Q1232.9375,382.9769 1234.2813,382.9769 Q1234.9063,382.9769 1235.5,382.7113 Q1236.0938,382.43 1236.7188,381.8519 L1236.7188,384.5706 Z " fill="#000000"/><text fill="#000000" font-family="sans-serif" font-size="14" lengthAdjust="spacing" textLength="104" x="1254.25" y="383.7767">ProfileUseCase</text><line style="stroke:#181818;stroke-width:0.5;" x1="983" x2="1597" y1="394.93" y2="394.93"/><line style="stroke:#181818;stroke-width:0.5;" x1="983" x2="1597" y1="402.93" y2="402.93"/><text fill="#000000" font-family="sans-serif" font-size="14" lengthAdjust="spacing" textLength="604" x="988" y="419.9251">createUserProfile(email: string, username: string, accessToken: string): Promise&lt;void&gt;</text></g><!--link IUserRepository to IAuthService--><g id="link_IUserRepository_IAuthService"><path codeLine="66" d="M699,261.81 C699,287.96 699,308.26 699,334.39 " fill="none" id="IUserRepository-to-IAuthService" style="stroke:#181818;stroke-width:1.0;"/><polygon fill="none" points="699,346.39,703,340.39,699,334.39,695,340.39,699,346.39" style="stroke:#181818;stroke-width:1.0;"/></g><!--link IAuthService to AuthUseCase--><g id="link_IAuthService_AuthUseCase"><path codeLine="67" d="M699,443.57 C699,471.99 699,495.99 699,524.47 " fill="none" id="IAuthService-to-AuthUseCase" style="stroke:#181818;stroke-width:1.0;"/><polygon fill="none" points="699,536.47,703,530.47,699,524.47,695,530.47,699,536.47" style="stroke:#181818;stroke-width:1.0;"/></g><!--link IPasswordService to PasswordUseCase--><g id="link_IPasswordService_PasswordUseCase"><path codeLine="68" d="M1864.64,435.76 C1811.97,467.73 1748.5182,506.2535 1695.7982,538.2535 " fill="none" id="IPasswordService-to-PasswordUseCase" style="stroke:#181818;stroke-width:1.0;"/><polygon fill="none" points="1685.54,544.48,1692.7446,544.7861,1695.7982,538.2535,1688.5936,537.9473,1685.54,544.48" style="stroke:#181818;stroke-width:1.0;"/></g><!--link TokenUseCase to IAuthService--><g id="link_TokenUseCase_IAuthService"><path codeLine="70" d="M417.47,395.08 C443.32,395.08 457.75,395.08 483.57,395.08 " fill="none" id="TokenUseCase-to-IAuthService" style="stroke:#181818;stroke-width:1.0;"/><polygon fill="none" points="495.57,395.08,489.57,391.08,483.57,395.08,489.57,399.08,495.57,395.08" style="stroke:#181818;stroke-width:1.0;"/><polygon fill="#000000" points="434,383.6464,443.0451,386.5853,443.0451,380.7075,434,383.6464" style="stroke:#000000;stroke-width:1.0;"/><text fill="#000000" font-family="sans-serif" font-size="13" lengthAdjust="spacing" textLength="30" x="448" y="388.1469">uses</text></g><!--reverse link IAuthService to ProfileUseCase--><g id="link_IAuthService_ProfileUseCase"><path codeLine="71" d="M914.39,395.08 C940.1,395.08 954.84,395.08 981.73,395.08 " fill="none" id="IAuthService-backto-ProfileUseCase" style="stroke:#181818;stroke-width:1.0;"/><polygon fill="none" points="902.39,395.08,908.39,399.08,914.39,395.08,908.39,391.08,902.39,395.08" style="stroke:#181818;stroke-width:1.0;"/><polygon fill="#000000" points="929.5,383.6464,920.4549,380.7075,920.4549,386.5853,929.5,383.6464" style="stroke:#000000;stroke-width:1.0;"/><text fill="#000000" font-family="sans-serif" font-size="13" lengthAdjust="spacing" textLength="30" x="933.5" y="388.1469">uses</text></g><!--reverse link IAuthService to PasswordUseCase--><g id="link_IAuthService_PasswordUseCase"><path codeLine="72" d="M913.9982,441.3254 C934.8482,445.6654 943.97,447.55 964,451.67 C1117.49,483.28 1291.34,518.39 1421.49,544.54 " fill="none" id="IAuthService-backto-PasswordUseCase" style="stroke:#181818;stroke-width:1.0;"/><polygon fill="none" points="902.25,438.88,907.309,444.0188,913.9982,441.3254,908.9392,436.1867,902.25,438.88" style="stroke:#181818;stroke-width:1.0;"/><polygon fill="#000000" points="1190.2797,491.2329,1182.0018,486.5502,1180.8303,492.3102,1190.2797,491.2329" style="stroke:#000000;stroke-width:1.0;"/><text fill="#000000" font-family="sans-serif" font-size="13" lengthAdjust="spacing" textLength="30" x="1194.38" y="494.7369">uses</text></g><!--reverse link TokenUseCase to ITokenService--><g id="link_TokenUseCase_ITokenService"><path codeLine="74" d="M212,464.03 C212,488.08 212,504.14 212,528.2 " fill="none" id="TokenUseCase-backto-ITokenService" style="stroke:#181818;stroke-width:1.0;"/><polygon fill="none" points="212,452.03,208,458.03,212,464.03,216,458.03,212,452.03" style="stroke:#181818;stroke-width:1.0;"/></g><!--link IProfileRepository to IProfileService--><g id="link_IProfileRepository_IProfileService"><path codeLine="76" d="M1290,79.87 C1290,108.86 1290,139.6 1290,168.57 " fill="none" id="IProfileRepository-to-IProfileService" style="stroke:#181818;stroke-width:1.0;"/><polygon fill="none" points="1290,180.57,1294,174.57,1290,168.57,1286,174.57,1290,180.57" style="stroke:#181818;stroke-width:1.0;"/></g><!--link IProfileService to ProfileUseCase--><g id="link_IProfileService_ProfileUseCase"><path codeLine="77" d="M1290,245.4 C1290,278.24 1290,317.54 1290,350.47 " fill="none" id="IProfileService-to-ProfileUseCase" style="stroke:#181818;stroke-width:1.0;"/><polygon fill="none" points="1290,362.47,1294,356.47,1290,350.47,1286,356.47,1290,362.47" style="stroke:#181818;stroke-width:1.0;"/></g><!--reverse link IUser to IUserRepository--><g id="link_IUser_IUserRepository"><path codeLine="79" d="M699,93.93 C699,116.93 699,140.06 699,164.31 " fill="none" id="IUser-backto-IUserRepository" style="stroke:#181818;stroke-width:1.0;"/><polygon fill="#181818" points="699,87.93,695,96.93,699,92.93,703,96.93,699,87.93" style="stroke:#181818;stroke-width:1.0;"/><polygon fill="#000000" points="704,121.1564,701.0611,130.2015,706.9389,130.2015,704,121.1564" style="stroke:#000000;stroke-width:1.0;"/><text fill="#000000" font-family="sans-serif" font-size="13" lengthAdjust="spacing" textLength="48" x="713" y="130.6569">creates</text></g><!--reverse link TokenData to TokenUseCase--><g id="link_TokenData_TokenUseCase"><path codeLine="81" d="M212,259.55 C212,284.39 212,310.82 212,338.27 " fill="none" id="TokenData-backto-TokenUseCase" style="stroke:#181818;stroke-width:1.0;"/><polygon fill="#181818" points="212,253.55,208,262.55,212,258.55,216,262.55,212,253.55" style="stroke:#181818;stroke-width:1.0;"/><polygon fill="#000000" points="217,295.0464,214.0611,304.0915,219.9389,304.0915,217,295.0464" style="stroke:#000000;stroke-width:1.0;"/><text fill="#000000" font-family="sans-serif" font-size="13" lengthAdjust="spacing" textLength="30" x="226" y="304.5469">uses</text></g><!--SRC=[vLPBRiCW4Dtx52nJARw0LLdgRv5TrCy1g1dRg1Wim4cZgdSljh4DE9-cKgHMpIh0UpDlPfWnb6kGESu0hLuKIFGH8VE32bEM8AKbvKMtKsEbjaAISVCpYZ9cDj6pU0D-ZpMsN4eyec_AiAZlyH5geQWMScVvcGIieJrQUDpbJCDLWjPIL5J1TMSgxVWvvQHTtUuUMhflP3-508DzBXtqHb2I1l9l6bq-WTnGi-YrIoYeqZzLpaH1-HdKVcFaYaQV9NzjBViXb5YLmydYcyupKTLOma1JCzwoCmjaVTZUgn0CC4-dYzMcroJd3gk_azvU-H2ch_utPDOfVzUtVkqBu21DytL72s9wEfdQUudWlQOIr8exJfnEts16oSZ6MGPATV-FQUhBcXkpPSzp5oUIKu1kXPrmDGQG1ZFBhyu_YDtjVIbook38yBM8i5yQSyHn1TFESGLx1qzlshzxb_DiUxAtwXVzSawzZuE8cpeEFtUHEzyimY55uH2na61gppmno7NiN_2a3KEXD8HAMfG66sJc49g8BOzdesr4HvxB0UvD6QCrAFqGKtWReq2JZvlC1G-85fKY-v99R7NdudhOz6uPO_W2]--></g></svg>