<?xml version="1.0" encoding="us-ascii" standalone="no"?><svg xmlns="http://www.w3.org/2000/svg" xmlns:xlink="http://www.w3.org/1999/xlink" contentStyleType="text/css" height="632px" preserveAspectRatio="none" style="width:1605px;height:632px;background:#FFFFFF;" version="1.1" viewBox="0 0 1605 632" width="1605px" zoomAndPan="magnify"><defs/><g><!--class IUser--><g id="elem_IUser"><rect codeLine="2" fill="#F1F1F1" height="80.5938" id="IUser" rx="2.5" ry="2.5" style="stroke:#181818;stroke-width:0.5;" width="127" x="635.5" y="7"/><ellipse cx="677.5" cy="23" fill="#B4A7E5" rx="11" ry="11" style="stroke:#181818;stroke-width:1.0;"/><path d="M673.4219,18.7656 L673.4219,16.6094 L680.8125,16.6094 L680.8125,18.7656 L678.3438,18.7656 L678.3438,26.8438 L680.8125,26.8438 L680.8125,29 L673.4219,29 L673.4219,26.8438 L675.8906,26.8438 L675.8906,18.7656 L673.4219,18.7656 Z " fill="#000000"/><text fill="#000000" font-family="sans-serif" font-size="14" font-style="italic" lengthAdjust="spacing" textLength="35" x="697.5" y="27.8467">IUser</text><line style="stroke:#181818;stroke-width:0.5;" x1="636.5" x2="761.5" y1="39" y2="39"/><text fill="#000000" font-family="sans-serif" font-size="14" lengthAdjust="spacing" textLength="84" x="641.5" y="55.9951">email: string</text><text fill="#000000" font-family="sans-serif" font-size="14" lengthAdjust="spacing" textLength="115" x="641.5" y="72.292">password: string</text><line style="stroke:#181818;stroke-width:0.5;" x1="636.5" x2="761.5" y1="79.5938" y2="79.5938"/></g><!--class TokenData--><g id="elem_TokenData"><rect codeLine="7" fill="#F1F1F1" height="80.5938" id="TokenData" rx="2.5" ry="2.5" style="stroke:#181818;stroke-width:0.5;" width="108" x="158" y="172.74"/><ellipse cx="173" cy="188.74" fill="#ADD1B2" rx="11" ry="11" style="stroke:#181818;stroke-width:1.0;"/><path d="M175.9688,194.3806 Q175.3906,194.6775 174.75,194.8181 Q174.1094,194.9744 173.4063,194.9744 Q170.9063,194.9744 169.5781,193.3338 Q168.2656,191.6775 168.2656,188.5525 Q168.2656,185.4275 169.5781,183.7713 Q170.9063,182.115 173.4063,182.115 Q174.1094,182.115 174.75,182.2713 Q175.4063,182.4275 175.9688,182.7244 L175.9688,185.4431 Q175.3438,184.865 174.75,184.5994 Q174.1563,184.3181 173.5313,184.3181 Q172.1875,184.3181 171.5,185.3963 Q170.8125,186.4588 170.8125,188.5525 Q170.8125,190.6463 171.5,191.7244 Q172.1875,192.7869 173.5313,192.7869 Q174.1563,192.7869 174.75,192.5213 Q175.3438,192.24 175.9688,191.6619 L175.9688,194.3806 Z " fill="#000000"/><text fill="#000000" font-family="sans-serif" font-size="14" lengthAdjust="spacing" textLength="76" x="187" y="193.5867">TokenData</text><line style="stroke:#181818;stroke-width:0.5;" x1="159" x2="265" y1="204.74" y2="204.74"/><text fill="#000000" font-family="sans-serif" font-size="14" lengthAdjust="spacing" textLength="60" x="164" y="221.7351">id: string</text><text fill="#000000" font-family="sans-serif" font-size="14" lengthAdjust="spacing" textLength="84" x="164" y="238.032">email: string</text><line style="stroke:#181818;stroke-width:0.5;" x1="159" x2="265" y1="245.3338" y2="245.3338"/></g><!--class IAuthRepository--><g id="elem_IAuthRepository"><rect codeLine="12" fill="#F1F1F1" height="96.8906" id="IAuthRepository" rx="2.5" ry="2.5" style="stroke:#181818;stroke-width:0.5;" width="429" x="484.5" y="164.59"/><ellipse cx="639.25" cy="180.59" fill="#B4A7E5" rx="11" ry="11" style="stroke:#181818;stroke-width:1.0;"/><path d="M635.1719,176.3556 L635.1719,174.1994 L642.5625,174.1994 L642.5625,176.3556 L640.0938,176.3556 L640.0938,184.4338 L642.5625,184.4338 L642.5625,186.59 L635.1719,186.59 L635.1719,184.4338 L637.6406,184.4338 L637.6406,176.3556 L635.1719,176.3556 Z " fill="#000000"/><text fill="#000000" font-family="sans-serif" font-size="14" font-style="italic" lengthAdjust="spacing" textLength="111" x="659.75" y="185.4367">IAuthRepository</text><line style="stroke:#181818;stroke-width:0.5;" x1="485.5" x2="912.5" y1="196.59" y2="196.59"/><line style="stroke:#181818;stroke-width:0.5;" x1="485.5" x2="912.5" y1="204.59" y2="204.59"/><text fill="#000000" font-family="sans-serif" font-size="14" lengthAdjust="spacing" textLength="417" x="490.5" y="221.5851">createUser(email: string, password: string): Promise&lt;IUser&gt;</text><text fill="#000000" font-family="sans-serif" font-size="14" lengthAdjust="spacing" textLength="328" x="490.5" y="237.882">findUserByEmail(email: string): Promise&lt;IUser&gt;</text><text fill="#000000" font-family="sans-serif" font-size="14" lengthAdjust="spacing" textLength="287" x="490.5" y="254.1789">deleteUser(email: string): Promise&lt;void&gt;</text></g><!--class IAuthService--><g id="elem_IAuthService"><rect codeLine="18" fill="#F1F1F1" height="96.8906" id="IAuthService" rx="2.5" ry="2.5" style="stroke:#181818;stroke-width:0.5;" width="406" x="496" y="346.63"/><ellipse cx="650.75" cy="362.63" fill="#B4A7E5" rx="11" ry="11" style="stroke:#181818;stroke-width:1.0;"/><path d="M646.6719,358.3956 L646.6719,356.2394 L654.0625,356.2394 L654.0625,358.3956 L651.5938,358.3956 L651.5938,366.4738 L654.0625,366.4738 L654.0625,368.63 L646.6719,368.63 L646.6719,366.4738 L649.1406,366.4738 L649.1406,358.3956 L646.6719,358.3956 Z " fill="#000000"/><text fill="#000000" font-family="sans-serif" font-size="14" font-style="italic" lengthAdjust="spacing" textLength="88" x="671.25" y="367.4767">IAuthService</text><line style="stroke:#181818;stroke-width:0.5;" x1="497" x2="901" y1="378.63" y2="378.63"/><line style="stroke:#181818;stroke-width:0.5;" x1="497" x2="901" y1="386.63" y2="386.63"/><text fill="#000000" font-family="sans-serif" font-size="14" lengthAdjust="spacing" textLength="394" x="502" y="403.6251">register(email: string, password: string): Promise&lt;IUser&gt;</text><text fill="#000000" font-family="sans-serif" font-size="14" lengthAdjust="spacing" textLength="378" x="502" y="419.922">login(email: string, password: string): Promise&lt;string&gt;</text><text fill="#000000" font-family="sans-serif" font-size="14" lengthAdjust="spacing" textLength="255" x="502" y="436.2189">logout(email: string): Promise&lt;void&gt;</text></g><!--class AuthUseCase--><g id="elem_AuthUseCase"><rect codeLine="24" fill="#F1F1F1" height="96.8906" id="AuthUseCase" rx="2.5" ry="2.5" style="stroke:#181818;stroke-width:0.5;" width="406" x="496" y="520.82"/><ellipse cx="647.75" cy="536.82" fill="#ADD1B2" rx="11" ry="11" style="stroke:#181818;stroke-width:1.0;"/><path d="M650.7188,542.4606 Q650.1406,542.7575 649.5,542.8981 Q648.8594,543.0544 648.1563,543.0544 Q645.6563,543.0544 644.3281,541.4138 Q643.0156,539.7575 643.0156,536.6325 Q643.0156,533.5075 644.3281,531.8513 Q645.6563,530.195 648.1563,530.195 Q648.8594,530.195 649.5,530.3513 Q650.1563,530.5075 650.7188,530.8044 L650.7188,533.5231 Q650.0938,532.945 649.5,532.6794 Q648.9063,532.3981 648.2813,532.3981 Q646.9375,532.3981 646.25,533.4763 Q645.5625,534.5388 645.5625,536.6325 Q645.5625,538.7263 646.25,539.8044 Q646.9375,540.8669 648.2813,540.8669 Q648.9063,540.8669 649.5,540.6013 Q650.0938,540.32 650.7188,539.7419 L650.7188,542.4606 Z " fill="#000000"/><text fill="#000000" font-family="sans-serif" font-size="14" lengthAdjust="spacing" textLength="94" x="668.25" y="541.6667">AuthUseCase</text><line style="stroke:#181818;stroke-width:0.5;" x1="497" x2="901" y1="552.82" y2="552.82"/><line style="stroke:#181818;stroke-width:0.5;" x1="497" x2="901" y1="560.82" y2="560.82"/><text fill="#000000" font-family="sans-serif" font-size="14" lengthAdjust="spacing" textLength="394" x="502" y="577.8151">register(email: string, password: string): Promise&lt;IUser&gt;</text><text fill="#000000" font-family="sans-serif" font-size="14" lengthAdjust="spacing" textLength="378" x="502" y="594.112">login(email: string, password: string): Promise&lt;string&gt;</text><text fill="#000000" font-family="sans-serif" font-size="14" lengthAdjust="spacing" textLength="255" x="502" y="610.4089">logout(email: string): Promise&lt;void&gt;</text></g><!--class ITokenService--><g id="elem_ITokenService"><rect codeLine="30" fill="#F1F1F1" height="113.1875" id="ITokenService" rx="2.5" ry="2.5" style="stroke:#181818;stroke-width:0.5;" width="410" x="7" y="512.67"/><ellipse cx="158.25" cy="528.67" fill="#B4A7E5" rx="11" ry="11" style="stroke:#181818;stroke-width:1.0;"/><path d="M154.1719,524.4356 L154.1719,522.2794 L161.5625,522.2794 L161.5625,524.4356 L159.0938,524.4356 L159.0938,532.5138 L161.5625,532.5138 L161.5625,534.67 L154.1719,534.67 L154.1719,532.5138 L156.6406,532.5138 L156.6406,524.4356 L154.1719,524.4356 Z " fill="#000000"/><text fill="#000000" font-family="sans-serif" font-size="14" font-style="italic" lengthAdjust="spacing" textLength="99" x="178.75" y="533.5167">ITokenService</text><line style="stroke:#181818;stroke-width:0.5;" x1="8" x2="416" y1="544.67" y2="544.67"/><line style="stroke:#181818;stroke-width:0.5;" x1="8" x2="416" y1="552.67" y2="552.67"/><text fill="#000000" font-family="sans-serif" font-size="14" lengthAdjust="spacing" textLength="398" x="13" y="569.6651">generateToken(data: TokenData, expiresIn: string): string</text><text fill="#000000" font-family="sans-serif" font-size="14" lengthAdjust="spacing" textLength="392" x="13" y="585.962">validateToken(accessToken: string): Promise&lt;boolean&gt;</text><text fill="#000000" font-family="sans-serif" font-size="14" lengthAdjust="spacing" textLength="372" x="13" y="602.2589">refreshToken(refreshToken: string): Promise&lt;string&gt;</text><text fill="#000000" font-family="sans-serif" font-size="14" lengthAdjust="spacing" textLength="371" x="13" y="618.5557">getData(accessToken: string): Promise&lt;TokenData&gt;</text></g><!--class TokenUseCase--><g id="elem_TokenUseCase"><rect codeLine="37" fill="#F1F1F1" height="113.1875" id="TokenUseCase" rx="2.5" ry="2.5" style="stroke:#181818;stroke-width:0.5;" width="410" x="7" y="338.48"/><ellipse cx="154.75" cy="354.48" fill="#ADD1B2" rx="11" ry="11" style="stroke:#181818;stroke-width:1.0;"/><path d="M157.7188,360.1206 Q157.1406,360.4175 156.5,360.5581 Q155.8594,360.7144 155.1563,360.7144 Q152.6563,360.7144 151.3281,359.0738 Q150.0156,357.4175 150.0156,354.2925 Q150.0156,351.1675 151.3281,349.5113 Q152.6563,347.855 155.1563,347.855 Q155.8594,347.855 156.5,348.0113 Q157.1563,348.1675 157.7188,348.4644 L157.7188,351.1831 Q157.0938,350.605 156.5,350.3394 Q155.9063,350.0581 155.2813,350.0581 Q153.9375,350.0581 153.25,351.1363 Q152.5625,352.1988 152.5625,354.2925 Q152.5625,356.3863 153.25,357.4644 Q153.9375,358.5269 155.2813,358.5269 Q155.9063,358.5269 156.5,358.2613 Q157.0938,357.98 157.7188,357.4019 L157.7188,360.1206 Z " fill="#000000"/><text fill="#000000" font-family="sans-serif" font-size="14" lengthAdjust="spacing" textLength="106" x="175.25" y="359.3267">TokenUseCase</text><line style="stroke:#181818;stroke-width:0.5;" x1="8" x2="416" y1="370.48" y2="370.48"/><line style="stroke:#181818;stroke-width:0.5;" x1="8" x2="416" y1="378.48" y2="378.48"/><text fill="#000000" font-family="sans-serif" font-size="14" lengthAdjust="spacing" textLength="398" x="13" y="395.4751">generateToken(data: TokenData, expiresIn: string): string</text><text fill="#000000" font-family="sans-serif" font-size="14" lengthAdjust="spacing" textLength="392" x="13" y="411.772">validateToken(accessToken: string): Promise&lt;boolean&gt;</text><text fill="#000000" font-family="sans-serif" font-size="14" lengthAdjust="spacing" textLength="372" x="13" y="428.0689">refreshToken(refreshToken: string): Promise&lt;string&gt;</text><text fill="#000000" font-family="sans-serif" font-size="14" lengthAdjust="spacing" textLength="371" x="13" y="444.3657">getData(accessToken: string): Promise&lt;TokenData&gt;</text></g><!--class ProfileRepository--><g id="elem_ProfileRepository"><rect codeLine="44" fill="#F1F1F1" height="64.2969" id="ProfileRepository" rx="2.5" ry="2.5" style="stroke:#181818;stroke-width:0.5;" width="616" x="982" y="15.15"/><ellipse cx="1227.75" cy="31.15" fill="#ADD1B2" rx="11" ry="11" style="stroke:#181818;stroke-width:1.0;"/><path d="M1230.7188,36.7906 Q1230.1406,37.0875 1229.5,37.2281 Q1228.8594,37.3844 1228.1563,37.3844 Q1225.6563,37.3844 1224.3281,35.7437 Q1223.0156,34.0875 1223.0156,30.9625 Q1223.0156,27.8375 1224.3281,26.1812 Q1225.6563,24.525 1228.1563,24.525 Q1228.8594,24.525 1229.5,24.6812 Q1230.1563,24.8375 1230.7188,25.1344 L1230.7188,27.8531 Q1230.0938,27.275 1229.5,27.0094 Q1228.9063,26.7281 1228.2813,26.7281 Q1226.9375,26.7281 1226.25,27.8062 Q1225.5625,28.8687 1225.5625,30.9625 Q1225.5625,33.0562 1226.25,34.1344 Q1226.9375,35.1969 1228.2813,35.1969 Q1228.9063,35.1969 1229.5,34.9312 Q1230.0938,34.65 1230.7188,34.0719 L1230.7188,36.7906 Z " fill="#000000"/><text fill="#000000" font-family="sans-serif" font-size="14" lengthAdjust="spacing" textLength="116" x="1248.25" y="35.9967">ProfileRepository</text><line style="stroke:#181818;stroke-width:0.5;" x1="983" x2="1597" y1="47.15" y2="47.15"/><line style="stroke:#181818;stroke-width:0.5;" x1="983" x2="1597" y1="55.15" y2="55.15"/><text fill="#000000" font-family="sans-serif" font-size="14" lengthAdjust="spacing" textLength="604" x="988" y="72.1451">createUserProfile(email: string, username: string, accessToken: string): Promise&lt;void&gt;</text></g><!--class ProfileService--><g id="elem_ProfileService"><rect codeLine="48" fill="#F1F1F1" height="64.2969" id="ProfileService" rx="2.5" ry="2.5" style="stroke:#181818;stroke-width:0.5;" width="616" x="982" y="180.89"/><ellipse cx="1239.75" cy="196.89" fill="#ADD1B2" rx="11" ry="11" style="stroke:#181818;stroke-width:1.0;"/><path d="M1242.7188,202.5306 Q1242.1406,202.8275 1241.5,202.9681 Q1240.8594,203.1244 1240.1563,203.1244 Q1237.6563,203.1244 1236.3281,201.4838 Q1235.0156,199.8275 1235.0156,196.7025 Q1235.0156,193.5775 1236.3281,191.9213 Q1237.6563,190.265 1240.1563,190.265 Q1240.8594,190.265 1241.5,190.4213 Q1242.1563,190.5775 1242.7188,190.8744 L1242.7188,193.5931 Q1242.0938,193.015 1241.5,192.7494 Q1240.9063,192.4681 1240.2813,192.4681 Q1238.9375,192.4681 1238.25,193.5463 Q1237.5625,194.6088 1237.5625,196.7025 Q1237.5625,198.7963 1238.25,199.8744 Q1238.9375,200.9369 1240.2813,200.9369 Q1240.9063,200.9369 1241.5,200.6713 Q1242.0938,200.39 1242.7188,199.8119 L1242.7188,202.5306 Z " fill="#000000"/><text fill="#000000" font-family="sans-serif" font-size="14" lengthAdjust="spacing" textLength="92" x="1260.25" y="201.7367">ProfileService</text><line style="stroke:#181818;stroke-width:0.5;" x1="983" x2="1597" y1="212.89" y2="212.89"/><line style="stroke:#181818;stroke-width:0.5;" x1="983" x2="1597" y1="220.89" y2="220.89"/><text fill="#000000" font-family="sans-serif" font-size="14" lengthAdjust="spacing" textLength="604" x="988" y="237.8851">createUserProfile(email: string, username: string, accessToken: string): Promise&lt;void&gt;</text></g><!--class ProfileUseCase--><g id="elem_ProfileUseCase"><rect codeLine="52" fill="#F1F1F1" height="64.2969" id="ProfileUseCase" rx="2.5" ry="2.5" style="stroke:#181818;stroke-width:0.5;" width="616" x="982" y="362.93"/><ellipse cx="1233.75" cy="378.93" fill="#ADD1B2" rx="11" ry="11" style="stroke:#181818;stroke-width:1.0;"/><path d="M1236.7188,384.5706 Q1236.1406,384.8675 1235.5,385.0081 Q1234.8594,385.1644 1234.1563,385.1644 Q1231.6563,385.1644 1230.3281,383.5238 Q1229.0156,381.8675 1229.0156,378.7425 Q1229.0156,375.6175 1230.3281,373.9613 Q1231.6563,372.305 1234.1563,372.305 Q1234.8594,372.305 1235.5,372.4613 Q1236.1563,372.6175 1236.7188,372.9144 L1236.7188,375.6331 Q1236.0938,375.055 1235.5,374.7894 Q1234.9063,374.5081 1234.2813,374.5081 Q1232.9375,374.5081 1232.25,375.5863 Q1231.5625,376.6488 1231.5625,378.7425 Q1231.5625,380.8363 1232.25,381.9144 Q1232.9375,382.9769 1234.2813,382.9769 Q1234.9063,382.9769 1235.5,382.7113 Q1236.0938,382.43 1236.7188,381.8519 L1236.7188,384.5706 Z " fill="#000000"/><text fill="#000000" font-family="sans-serif" font-size="14" lengthAdjust="spacing" textLength="104" x="1254.25" y="383.7767">ProfileUseCase</text><line style="stroke:#181818;stroke-width:0.5;" x1="983" x2="1597" y1="394.93" y2="394.93"/><line style="stroke:#181818;stroke-width:0.5;" x1="983" x2="1597" y1="402.93" y2="402.93"/><text fill="#000000" font-family="sans-serif" font-size="14" lengthAdjust="spacing" textLength="604" x="988" y="419.9251">createUserProfile(email: string, username: string, accessToken: string): Promise&lt;void&gt;</text></g><!--link IAuthRepository to IAuthService--><g id="link_IAuthRepository_IAuthService"><path codeLine="56" d="M699,261.81 C699,287.96 699,308.26 699,334.39 " fill="none" id="IAuthRepository-to-IAuthService" style="stroke:#181818;stroke-width:1.0;"/><polygon fill="none" points="699,346.39,703,340.39,699,334.39,695,340.39,699,346.39" style="stroke:#181818;stroke-width:1.0;"/></g><!--link IAuthService to AuthUseCase--><g id="link_IAuthService_AuthUseCase"><path codeLine="57" d="M699,443.59 C699,467.58 699,484.61 699,508.62 " fill="none" id="IAuthService-to-AuthUseCase" style="stroke:#181818;stroke-width:1.0;"/><polygon fill="none" points="699,520.62,703,514.62,699,508.62,695,514.62,699,520.62" style="stroke:#181818;stroke-width:1.0;"/></g><!--link TokenUseCase to IAuthService--><g id="link_TokenUseCase_IAuthService"><path codeLine="59" d="M417.47,395.08 C443.32,395.08 457.75,395.08 483.57,395.08 " fill="none" id="TokenUseCase-to-IAuthService" style="stroke:#181818;stroke-width:1.0;"/><polygon fill="none" points="495.57,395.08,489.57,391.08,483.57,395.08,489.57,399.08,495.57,395.08" style="stroke:#181818;stroke-width:1.0;"/><polygon fill="#000000" points="434,383.6464,443.0451,386.5853,443.0451,380.7075,434,383.6464" style="stroke:#000000;stroke-width:1.0;"/><text fill="#000000" font-family="sans-serif" font-size="13" lengthAdjust="spacing" textLength="30" x="448" y="388.1469">uses</text></g><!--reverse link IAuthService to ProfileUseCase--><g id="link_IAuthService_ProfileUseCase"><path codeLine="60" d="M914.39,395.08 C940.1,395.08 954.84,395.08 981.73,395.08 " fill="none" id="IAuthService-backto-ProfileUseCase" style="stroke:#181818;stroke-width:1.0;"/><polygon fill="none" points="902.39,395.08,908.39,399.08,914.39,395.08,908.39,391.08,902.39,395.08" style="stroke:#181818;stroke-width:1.0;"/><polygon fill="#000000" points="929.5,383.6464,920.4549,380.7075,920.4549,386.5853,929.5,383.6464" style="stroke:#000000;stroke-width:1.0;"/><text fill="#000000" font-family="sans-serif" font-size="13" lengthAdjust="spacing" textLength="30" x="933.5" y="388.1469">uses</text></g><!--reverse link TokenUseCase to ITokenService--><g id="link_TokenUseCase_ITokenService"><path codeLine="62" d="M212,463.98 C212,483.33 212,493 212,512.35 " fill="none" id="TokenUseCase-backto-ITokenService" style="stroke:#181818;stroke-width:1.0;"/><polygon fill="none" points="212,451.98,208,457.98,212,463.98,216,457.98,212,451.98" style="stroke:#181818;stroke-width:1.0;"/></g><!--link ProfileRepository to ProfileService--><g id="link_ProfileRepository_ProfileService"><path codeLine="64" d="M1290,79.87 C1290,108.86 1290,139.6 1290,168.57 " fill="none" id="ProfileRepository-to-ProfileService" style="stroke:#181818;stroke-width:1.0;"/><polygon fill="none" points="1290,180.57,1294,174.57,1290,168.57,1286,174.57,1290,180.57" style="stroke:#181818;stroke-width:1.0;"/></g><!--link ProfileService to ProfileUseCase--><g id="link_ProfileService_ProfileUseCase"><path codeLine="65" d="M1290,245.4 C1290,278.24 1290,317.54 1290,350.47 " fill="none" id="ProfileService-to-ProfileUseCase" style="stroke:#181818;stroke-width:1.0;"/><polygon fill="none" points="1290,362.47,1294,356.47,1290,350.47,1286,356.47,1290,362.47" style="stroke:#181818;stroke-width:1.0;"/></g><!--reverse link IUser to IAuthRepository--><g id="link_IUser_IAuthRepository"><path codeLine="67" d="M699,93.93 C699,116.93 699,140.06 699,164.31 " fill="none" id="IUser-backto-IAuthRepository" style="stroke:#181818;stroke-width:1.0;"/><polygon fill="#181818" points="699,87.93,695,96.93,699,92.93,703,96.93,699,87.93" style="stroke:#181818;stroke-width:1.0;"/><polygon fill="#000000" points="704,121.1564,701.0611,130.2015,706.9389,130.2015,704,121.1564" style="stroke:#000000;stroke-width:1.0;"/><text fill="#000000" font-family="sans-serif" font-size="13" lengthAdjust="spacing" textLength="48" x="713" y="130.6569">creates</text></g><!--reverse link TokenData to TokenUseCase--><g id="link_TokenData_TokenUseCase"><path codeLine="69" d="M212,259.55 C212,284.39 212,310.82 212,338.27 " fill="none" id="TokenData-backto-TokenUseCase" style="stroke:#181818;stroke-width:1.0;"/><polygon fill="#181818" points="212,253.55,208,262.55,212,258.55,216,262.55,212,253.55" style="stroke:#181818;stroke-width:1.0;"/><polygon fill="#000000" points="217,295.0464,214.0611,304.0915,219.9389,304.0915,217,295.0464" style="stroke:#000000;stroke-width:1.0;"/><text fill="#000000" font-family="sans-serif" font-size="13" lengthAdjust="spacing" textLength="30" x="226" y="304.5469">uses</text></g><!--SRC=[vLLBRiCW4Drp2fQf55_0gYprjyYkwkS0r8oTKGbOW9D6LUzUR2CRi9MebLgfgbTcc3VpXdaCA2teYfL0Dyy6D7qdr7smOoXoQgn6MVUMXXbpK9gFnWz2Ik6Cz4czWhnbbdaiyWWOXt8ed39UjNRx08qoQ9K-UdofWLdeoAmYx7h6uIAdzrhjqC1bJxxeyHLAtgskZtSTF0wo3E4WO2bbuBrNo8i5-e-Wz-WM0tSDDHhxNUP2rIY_01qC8rQrzZpzeMSTSvVtXfc_mpmu-5voySdN844xtVHRA-xac4_AN5DuQr23sSWWGo3IFHF8HpGhIp2c_ryWzAAK02OBVsoL2xiTSE7YJD4rs8xOcLHZ0KLotUBU_PlQtLw50awC3E-HIh5rMvBjOBASJfvS5nyrLjml9OrR_ND9esccihR9qlbCmgaHU7ZGB8I0ocQnNlEEdw55wggntZhVfEJHcqH1LCRLGMRn620aQT90SAOOakI8tE9A0fbrJWNrJsJkkp1dDhXD3-9Om2S0]--></g></svg>