<?xml version="1.0" encoding="us-ascii" standalone="no"?><svg xmlns="http://www.w3.org/2000/svg" xmlns:xlink="http://www.w3.org/1999/xlink" contentStyleType="text/css" height="507px" preserveAspectRatio="none" style="width:447px;height:507px;background:#FFFFFF;" version="1.1" viewBox="0 0 447 507" width="447px" zoomAndPan="magnify"><defs/><g><!--cluster LetsStreamIt--><g id="cluster_LetsStreamIt"><rect fill="none" height="494" rx="2.5" ry="2.5" style="stroke:#181818;stroke-width:1.0;" width="229.21" x="159" y="7"/><text fill="#000000" font-family="sans-serif" font-size="14" font-weight="bold" lengthAdjust="spacing" textLength="100" x="223.605" y="21.9951">LetsStreamIt</text></g><!--cluster Authentication--><g id="cluster_Authentication"><rect fill="none" height="81" rx="2.5" ry="2.5" style="stroke:#181818;stroke-width:1.0;" width="131" x="208.61" y="396"/><text fill="#000000" font-family="sans-serif" font-size="14" font-weight="bold" lengthAdjust="spacing" textLength="115" x="216.61" y="410.9951">Authentication</text></g><!--cluster Profile--><g id="cluster_Profile"><rect fill="none" height="146" rx="2.5" ry="2.5" style="stroke:#181818;stroke-width:1.0;" width="161.47" x="192.87" y="226"/><text fill="#000000" font-family="sans-serif" font-size="14" font-weight="bold" lengthAdjust="spacing" textLength="51" x="248.105" y="240.9951">Profile</text></g><!--cluster Session--><g id="cluster_Session"><rect fill="none" height="152" rx="2.5" ry="2.5" style="stroke:#181818;stroke-width:1.0;" width="181.21" x="183" y="50"/><text fill="#000000" font-family="sans-serif" font-size="14" font-weight="bold" lengthAdjust="spacing" textLength="62" x="242.605" y="64.9951">Session</text></g><g id="elem_Logout"><ellipse cx="273.6136" cy="445.9978" fill="#F1F1F1" rx="45.8836" ry="14.6478" style="stroke:#181818;stroke-width:0.5;"/><text fill="#000000" font-family="sans-serif" font-size="14" lengthAdjust="spacing" textLength="48" x="246.6136" y="449.7454">Logout</text></g><g id="elem_ViewProfile"><ellipse cx="273.6053" cy="340.9971" fill="#F1F1F1" rx="64.7353" ry="15.3471" style="stroke:#181818;stroke-width:0.5;"/><text fill="#000000" font-family="sans-serif" font-size="14" lengthAdjust="spacing" textLength="78" x="231.6053" y="344.7446">View Profile</text></g><g id="elem_EditProfile"><ellipse cx="273.6149" cy="275.997" fill="#F1F1F1" rx="62.7349" ry="14.947" style="stroke:#181818;stroke-width:0.5;"/><text fill="#000000" font-family="sans-serif" font-size="14" lengthAdjust="spacing" textLength="72" x="234.6149" y="279.7445">Edit Profile</text></g><g id="elem_CreateSession"><ellipse cx="273.6066" cy="169.0013" fill="#F1F1F1" rx="74.6066" ry="17.3213" style="stroke:#181818;stroke-width:0.5;"/><text fill="#000000" font-family="sans-serif" font-size="14" lengthAdjust="spacing" textLength="105" x="218.1066" y="172.7489">Create Session</text></g><g id="elem_JoinSession"><ellipse cx="273.6126" cy="101.0025" fill="#F1F1F1" rx="66.4626" ry="15.6925" style="stroke:#181818;stroke-width:0.5;"/><text fill="#000000" font-family="sans-serif" font-size="14" lengthAdjust="spacing" textLength="83" x="229.1126" y="104.7501">Join Session</text></g><!--entity Authenticated User--><g id="elem_Authenticated User"><ellipse cx="72.5" cy="246.35" fill="#F1F1F1" rx="8" ry="8" style="stroke:#181818;stroke-width:0.5;"/><path d="M72.5,254.35 L72.5,281.35 M59.5,262.35 L85.5,262.35 M72.5,281.35 L59.5,296.35 M72.5,281.35 L85.5,296.35 " fill="none" style="stroke:#181818;stroke-width:0.5;"/><text fill="#000000" font-family="sans-serif" font-size="14" lengthAdjust="spacing" textLength="133" x="6" y="310.8451">Authenticated User</text></g><!--entity User--><g id="elem_User"><ellipse cx="424.21" cy="311.35" fill="#F1F1F1" rx="8" ry="8" style="stroke:#181818;stroke-width:0.5;"/><path d="M424.21,319.35 L424.21,346.35 M411.21,327.35 L437.21,327.35 M424.21,346.35 L411.21,361.35 M424.21,346.35 L437.21,361.35 " fill="none" style="stroke:#181818;stroke-width:0.5;"/><text fill="#000000" font-family="sans-serif" font-size="14" lengthAdjust="spacing" textLength="32" x="408.21" y="375.8451">User</text></g><!--link Authenticated User to Logout--><g id="link_Authenticated User_Logout"><path d="M99.85,314.63 C113.73,333.28 131.82,355.21 151,372 C180.94,398.21 215.9684,418.0069 241.8084,431.1069 " fill="none" id="Authenticated User-to-Logout" style="stroke:#181818;stroke-width:1.0;"/><polygon fill="#181818" points="247.16,433.82,240.9414,426.1827,242.7004,431.5591,237.3239,433.3181,247.16,433.82" style="stroke:#181818;stroke-width:1.0;"/></g><!--link Authenticated User to ViewProfile--><g id="link_Authenticated User_ViewProfile"><path d="M139.24,303.81 C143.2,305.28 147.14,306.69 151,308 C175.75,316.43 198.0768,322.6944 221.0468,328.5644 " fill="none" id="Authenticated User-to-ViewProfile" style="stroke:#181818;stroke-width:1.0;"/><polygon fill="#181818" points="226.86,330.05,219.1306,323.9462,222.0157,328.812,217.1498,331.6971,226.86,330.05" style="stroke:#181818;stroke-width:1.0;"/></g><!--link Authenticated User to EditProfile--><g id="link_Authenticated User_EditProfile"><path d="M139.25,276 C162.24,276 181.97,276 204.64,276 " fill="none" id="Authenticated User-to-EditProfile" style="stroke:#181818;stroke-width:1.0;"/><polygon fill="#181818" points="210.64,276,201.64,272,205.64,276,201.64,280,210.64,276" style="stroke:#181818;stroke-width:1.0;"/></g><!--link Authenticated User to CreateSession--><g id="link_Authenticated User_CreateSession"><path d="M139.25,240.67 C174.13,221.92 210.0244,202.6295 237.2944,187.9795 " fill="none" id="Authenticated User-to-CreateSession" style="stroke:#181818;stroke-width:1.0;"/><polygon fill="#181818" points="242.58,185.14,232.7586,185.8756,238.1754,187.5063,236.5447,192.923,242.58,185.14" style="stroke:#181818;stroke-width:1.0;"/></g><!--link Authenticated User to JoinSession--><g id="link_Authenticated User_JoinSession"><path d="M85,237.51 C96.59,205.25 117.6,160.36 151,134 C168.52,120.18 185.5214,113.4251 206.6914,108.7451 " fill="none" id="Authenticated User-to-JoinSession" style="stroke:#181818;stroke-width:1.0;"/><polygon fill="#181818" points="212.55,107.45,202.8987,105.487,207.6679,108.5293,204.6256,113.2984,212.55,107.45" style="stroke:#181818;stroke-width:1.0;"/></g><!--link ViewProfile to User--><g id="link_ViewProfile_User"><path d="M338.49,341 C364.14,341 385.47,341 401.95,341 " fill="none" id="ViewProfile-to-User" style="stroke:#181818;stroke-width:1.0;"/><polygon fill="#181818" points="407.95,341,398.95,337,402.95,341,398.95,345,407.95,341" style="stroke:#181818;stroke-width:1.0;"/></g><!--SRC=[TPB12iCW38RlFaNmtbSOZB73HW-3iTt5fgtGLT2K7SRUVUeif5Z5W_7_yckY4_O4PC6POIJeZ4DDniv2A4tMWJmkDE9CHYl23XuUdSnIN0iHUJKF4u9iaVoT7AhNXIHyX80mcCwimWcHW3mMZrfvXDOETY5GFfYbfKp8jx2wETkR2VSydWRVMKv6COQLB-XpPuZJCTxIvU5tzBvIm2bKJvY1PFZVWJMdoBXQCtC-nbiwN23ClOU0fZdadjLrreywnDfGXpR5rJ5MaH3yDQAOFiqF]--></g></svg>