<?xml version="1.0" encoding="us-ascii" standalone="no"?><svg xmlns="http://www.w3.org/2000/svg" xmlns:xlink="http://www.w3.org/1999/xlink" contentStyleType="text/css" height="158px" preserveAspectRatio="none" style="width:226px;height:158px;background:#FFFFFF;" version="1.1" viewBox="0 0 226 158" width="226px" zoomAndPan="magnify"><defs/><g><!--cluster Authentication--><g id="cluster_Authentication"><rect fill="none" height="145" rx="2.5" ry="2.5" style="stroke:#181818;stroke-width:1.0;" width="138.69" x="82" y="7"/><text fill="#000000" font-family="sans-serif" font-size="14" font-weight="bold" lengthAdjust="spacing" textLength="115" x="93.845" y="21.9951">Authentication</text></g><g id="elem_Login"><ellipse cx="151.3531" cy="120.9985" fill="#F1F1F1" rx="37.7231" ry="14.5485" style="stroke:#181818;stroke-width:0.5;"/><text fill="#000000" font-family="sans-serif" font-size="14" lengthAdjust="spacing" textLength="37" x="131.2416" y="124.3812">Login</text></g><g id="elem_Register"><ellipse cx="151.3472" cy="57.0015" fill="#F1F1F1" rx="53.3472" ry="14.7215" style="stroke:#181818;stroke-width:0.5;"/><text fill="#000000" font-family="sans-serif" font-size="14" lengthAdjust="spacing" textLength="58" x="119.3472" y="60.749">Register</text></g><!--entity User--><g id="elem_User"><ellipse cx="22" cy="59.35" fill="#F1F1F1" rx="8" ry="8" style="stroke:#181818;stroke-width:0.5;"/><path d="M22,67.35 L22,94.35 M9,75.35 L35,75.35 M22,94.35 L9,109.35 M22,94.35 L35,109.35 " fill="none" style="stroke:#181818;stroke-width:0.5;"/><text fill="#000000" font-family="sans-serif" font-size="14" lengthAdjust="spacing" textLength="32" x="6" y="123.8451">User</text></g><!--link User to Login--><g id="link_User_Login"><path d="M38.36,92.86 C58.21,97.85 87.421,105.1873 113.041,111.6273 " fill="none" id="User-to-Login" style="stroke:#181818;stroke-width:1.0;"/><polygon fill="#181818" points="118.86,113.09,111.1067,107.0166,114.0109,111.8711,109.1564,114.7753,118.86,113.09" style="stroke:#181818;stroke-width:1.0;"/></g><!--link User to Register--><g id="link_User_Register"><path d="M38.36,85.14 C56.22,80.65 80.5708,74.5319 105.0908,68.3719 " fill="none" id="User-to-Register" style="stroke:#181818;stroke-width:1.0;"/><polygon fill="#181818" points="110.91,66.91,101.2066,65.2234,106.0607,68.1283,103.1558,72.9823,110.91,66.91" style="stroke:#181818;stroke-width:1.0;"/></g><!--SRC=[LKqx2iCm3DrrYeVtN26GlLCW1n2kwWY23P8oXTuzTKeeVTFxyZPv1QB1jAo1fvhaq5Q9E4SpB2v6r4skPHDCUwnIGpFt5Wx21xjBPXSyMj4ATgIBfRzmbg8UObT-YqHlelw1OHY_-v-yIoS0]--></g></svg>