<?xml version="1.0" encoding="us-ascii" standalone="no"?><svg xmlns="http://www.w3.org/2000/svg" xmlns:xlink="http://www.w3.org/1999/xlink" contentStyleType="text/css" height="456px" preserveAspectRatio="none" style="width:584px;height:456px;background:#FFFFFF;" version="1.1" viewBox="0 0 584 456" width="584px" zoomAndPan="magnify"><defs/><g><!--cluster Session--><g id="cluster_Session"><rect fill="none" height="443" rx="2.5" ry="2.5" style="stroke:#181818;stroke-width:1.0;" width="265.55" x="159" y="7"/><text fill="#000000" font-family="sans-serif" font-size="14" font-weight="bold" lengthAdjust="spacing" textLength="62" x="260.775" y="21.9951">Session</text></g><!--cluster Video--><g id="cluster_Video"><rect fill="none" height="225" rx="2.5" ry="2.5" style="stroke:#181818;stroke-width:1.0;" width="217.55" x="183" y="201"/><text fill="#000000" font-family="sans-serif" font-size="14" font-weight="bold" lengthAdjust="spacing" textLength="45" x="269.275" y="215.9951">Video</text></g><!--cluster Chat--><g id="cluster_Chat"><rect fill="none" height="85" rx="2.5" ry="2.5" style="stroke:#181818;stroke-width:1.0;" width="179.67" x="201.94" y="92"/><text fill="#000000" font-family="sans-serif" font-size="14" font-weight="bold" lengthAdjust="spacing" textLength="36" x="273.775" y="106.9951">Chat</text></g><g id="elem_LeaveSession"><ellipse cx="291.7773" cy="59.0015" fill="#F1F1F1" rx="72.3073" ry="16.8615" style="stroke:#181818;stroke-width:0.5;"/><text fill="#000000" font-family="sans-serif" font-size="14" lengthAdjust="spacing" textLength="99" x="239.2773" y="62.749">Leave Session</text></g><g id="elem_PlayVideo"><ellipse cx="291.7768" cy="394.9974" fill="#F1F1F1" rx="62.0868" ry="14.8174" style="stroke:#181818;stroke-width:0.5;"/><text fill="#000000" font-family="sans-serif" font-size="14" lengthAdjust="spacing" textLength="70" x="253.7768" y="398.7449">Play Video</text></g><g id="elem_PauseVideo"><ellipse cx="291.7833" cy="329.0047" fill="#F1F1F1" rx="67.5233" ry="15.9047" style="stroke:#181818;stroke-width:0.5;"/><text fill="#000000" font-family="sans-serif" font-size="14" lengthAdjust="spacing" textLength="86" x="245.7833" y="332.7522">Pause Video</text></g><g id="elem_MoveVideo"><ellipse cx="291.7771" cy="256.9954" fill="#F1F1F1" rx="92.7771" ry="20.9554" style="stroke:#181818;stroke-width:0.5;"/><text fill="#000000" font-family="sans-serif" font-size="14" lengthAdjust="spacing" textLength="148" x="217.7771" y="259.8421">Move around timeline</text></g><g id="elem_SendMessage"><ellipse cx="291.7843" cy="143.9969" fill="#F1F1F1" rx="73.8343" ry="17.1669" style="stroke:#181818;stroke-width:0.5;"/><text fill="#000000" font-family="sans-serif" font-size="14" lengthAdjust="spacing" textLength="103" x="237.2843" y="147.7444">Send Message</text></g><!--entity AuthUser--><g id="elem_AuthUser"><ellipse cx="72.5" cy="116.35" fill="#F1F1F1" rx="8" ry="8" style="stroke:#181818;stroke-width:0.5;"/><path d="M72.5,124.35 L72.5,151.35 M59.5,132.35 L85.5,132.35 M72.5,151.35 L59.5,166.35 M72.5,151.35 L85.5,166.35 " fill="none" style="stroke:#181818;stroke-width:0.5;"/><text fill="#000000" font-family="sans-serif" font-size="14" lengthAdjust="spacing" textLength="133" x="6" y="180.8451">Authenticated User</text></g><!--entity SessionUser--><g id="elem_SessionUser"><ellipse cx="72.5" cy="227.35" fill="#F1F1F1" rx="8" ry="8" style="stroke:#181818;stroke-width:0.5;"/><path d="M72.5,235.35 L72.5,262.35 M59.5,243.35 L85.5,243.35 M72.5,262.35 L59.5,277.35 M72.5,262.35 L85.5,277.35 " fill="none" style="stroke:#181818;stroke-width:0.5;"/><text fill="#000000" font-family="sans-serif" font-size="14" lengthAdjust="spacing" textLength="107" x="19" y="291.8451">User in Session</text></g><!--entity AuthUser2--><g id="elem_AuthUser2"><ellipse cx="511.05" cy="152.35" fill="#F1F1F1" rx="8" ry="8" style="stroke:#181818;stroke-width:0.5;"/><path d="M511.05,160.35 L511.05,187.35 M498.05,168.35 L524.05,168.35 M511.05,187.35 L498.05,202.35 M511.05,187.35 L524.05,202.35 " fill="none" style="stroke:#181818;stroke-width:0.5;"/><text fill="#000000" font-family="sans-serif" font-size="14" lengthAdjust="spacing" textLength="133" x="444.55" y="216.8451">Authenticated User</text></g><!--entity SessionUser2--><g id="elem_SessionUser2"><ellipse cx="511.05" cy="263.35" fill="#F1F1F1" rx="8" ry="8" style="stroke:#181818;stroke-width:0.5;"/><path d="M511.05,271.35 L511.05,298.35 M498.05,279.35 L524.05,279.35 M511.05,298.35 L498.05,313.35 M511.05,298.35 L524.05,313.35 " fill="none" style="stroke:#181818;stroke-width:0.5;"/><text fill="#000000" font-family="sans-serif" font-size="14" lengthAdjust="spacing" textLength="107" x="457.55" y="327.8451">User in Session</text></g><!--reverse link AuthUser to SessionUser--><g id="link_AuthUser_SessionUser"><path d="M72.5,202.47 C72.5,213.78 72.5,207.1 72.5,218.41 " fill="none" id="AuthUser-backto-SessionUser" style="stroke:#181818;stroke-width:1.0;"/><polygon fill="none" points="72.5,184.47,66.5,202.47,78.5,202.47,72.5,184.47" style="stroke:#181818;stroke-width:1.0;"/></g><!--reverse link AuthUser2 to SessionUser2--><g id="link_AuthUser2_SessionUser2"><path d="M511.05,238.47 C511.05,249.78 511.05,243.1 511.05,254.41 " fill="none" id="AuthUser2-backto-SessionUser2" style="stroke:#181818;stroke-width:1.0;"/><polygon fill="none" points="511.05,220.47,505.05,238.47,517.05,238.47,511.05,220.47" style="stroke:#181818;stroke-width:1.0;"/></g><!--link SessionUser to LeaveSession--><g id="link_SessionUser_LeaveSession"><path d="M126.48,219.12 C131.31,213.84 135.64,208.12 139,202 C158.62,166.23 125.58,142.9 151,111 C169.88,87.31 194.8814,75.874 222.7814,68.854 " fill="none" id="SessionUser-to-LeaveSession" style="stroke:#181818;stroke-width:1.0;"/><polygon fill="#181818" points="228.6,67.39,218.896,65.707,223.7511,68.61,220.8481,73.4652,228.6,67.39" style="stroke:#181818;stroke-width:1.0;"/></g><!--link SessionUser to PlayVideo--><g id="link_SessionUser_PlayVideo"><path d="M92.87,295.44 C106.21,318.12 126.04,345.53 151,362 C175.04,377.86 199.9071,385.1715 226.4771,389.4715 " fill="none" id="SessionUser-to-PlayVideo" style="stroke:#181818;stroke-width:1.0;"/><polygon fill="#181818" points="232.4,390.43,224.1546,385.0436,227.4642,389.6312,222.8766,392.9408,232.4,390.43" style="stroke:#181818;stroke-width:1.0;"/></g><!--link SessionUser to PauseVideo--><g id="link_SessionUser_PauseVideo"><path d="M126.2,284.72 C134.38,288.47 142.83,292.04 151,295 C179.18,305.2 205.785,312.0442 232.335,317.7742 " fill="none" id="SessionUser-to-PauseVideo" style="stroke:#181818;stroke-width:1.0;"/><polygon fill="#181818" points="238.2,319.04,230.2464,313.2314,233.3125,317.9852,228.5587,321.0513,238.2,319.04" style="stroke:#181818;stroke-width:1.0;"/></g><!--link SessionUser to MoveVideo--><g id="link_SessionUser_MoveVideo"><path d="M126.37,257 C148.11,257 167.92,257 192.58,257 " fill="none" id="SessionUser-to-MoveVideo" style="stroke:#181818;stroke-width:1.0;"/><polygon fill="#181818" points="198.58,257,189.58,253,193.58,257,189.58,261,198.58,257" style="stroke:#181818;stroke-width:1.0;"/></g><!--link SessionUser to SendMessage--><g id="link_SessionUser_SendMessage"><path d="M126.37,229.5 C168.33,207.68 220.1865,180.7077 254.8665,162.6777 " fill="none" id="SessionUser-to-SendMessage" style="stroke:#181818;stroke-width:1.0;"/><polygon fill="#181818" points="260.19,159.91,250.3596,160.5125,255.7537,162.2164,254.0498,167.6105,260.19,159.91" style="stroke:#181818;stroke-width:1.0;"/></g><!--link SendMessage to SessionUser2--><g id="link_SendMessage_SessionUser2"><path d="M331.22,158.84 C361.22,171.76 402.68,192.7 432.55,220 C439.65,226.49 438.14,230.84 444.55,238 C449.61,243.64 450.818,245.1646 456.608,250.4746 " fill="none" id="SendMessage-to-SessionUser2" style="stroke:#181818;stroke-width:1.0;"/><polygon fill="#181818" points="461.03,254.53,457.1006,245.4989,457.345,251.1505,451.6934,251.3949,461.03,254.53" style="stroke:#181818;stroke-width:1.0;"/></g><!--link MoveVideo to SessionUser2--><g id="link_MoveVideo_SessionUser2"><path d="M367.55,269.39 C397.01,274.27 424.2507,278.779 451.1607,283.239 " fill="none" id="MoveVideo-to-SessionUser2" style="stroke:#181818;stroke-width:1.0;"/><polygon fill="#181818" points="457.08,284.22,448.8551,278.8023,452.1473,283.4025,447.5471,286.6946,457.08,284.22" style="stroke:#181818;stroke-width:1.0;"/></g><!--link PlayVideo to SessionUser2--><g id="link_PlayVideo_SessionUser2"><path d="M348.08,388.41 C374.72,383.65 406.45,375.58 432.55,362 C447.58,354.19 457.6046,346.8725 469.8646,335.5925 " fill="none" id="PlayVideo-to-SessionUser2" style="stroke:#181818;stroke-width:1.0;"/><polygon fill="#181818" points="474.28,331.53,464.9485,334.6801,470.6005,334.9154,470.3652,340.5674,474.28,331.53" style="stroke:#181818;stroke-width:1.0;"/></g><!--link PauseVideo to SessionUser2--><g id="link_PauseVideo_SessionUser2"><path d="M347.89,319.87 C381.45,314.31 418.1907,308.2206 451.3307,302.7306 " fill="none" id="PauseVideo-to-SessionUser2" style="stroke:#181818;stroke-width:1.0;"/><polygon fill="#181818" points="457.25,301.75,447.7173,299.2747,452.3172,302.5672,449.0247,307.1671,457.25,301.75" style="stroke:#181818;stroke-width:1.0;"/></g><!--SRC=[XP51QyCm38Nl_XKYzrnw36CmUcrXKBQxYDN4aDaGEuMnzh_FiXt7hJTgGh3yFJ_afudE3fo1MGsZ0wbcwfqoMeZkRN4ZQQTwT2JXmzBS0LhWOov4ntzG6avahRyIQDf7mHE7tLEBdH3S3-fX8cWIQE172F1hiTIZ9JWGNYX1DcZ2mUhJH77Xywaa6NQ1j5QZzmc_0mmkN47KrahqkqBAvN_QexaKKgu0PxDe2KvzqQGqnJktgj7zYEwlFa-avT6_3WSAdbn3EiXU_bk3XfThUpUPF857uWClAcZRrxjqAvWJgqbEg48va8eK3-D6jbT6MBIvXLgXROersiPMiLy0]--></g></svg>